<svg height="159" viewBox="0 0 186 159" width="186" xmlns="http://www.w3.org/2000/svg"><path d="m180.623795 31.9642236-38.797654 38.7976537c-5.068932 5.0689322-22.756727 8.1808723-22.756727 8.1808723l-14.517037 14.5223846 53.58204 53.5820398-11.121709 11.127056-53.5873873-53.587387-53.5873872 53.587387-11.1217079-11.127056 53.5820399-53.5820398-14.9020206-14.5277319s-17.3028124-3.1065928-22.3717447-8.175525l-38.79765366-38.7976537c-7.06870119-7.0687012-7.06870119-18.6342085 0-25.69756356 7.06870226-7.06870119 18.63420956-7.06870119 25.69756356 0l38.7976537 38.79765366c5.0689322 5.0689323 9.6566367 24.2271452 9.6566367 24.2271452l13.0466202 13.0466201 13.1000903-13.1000901s4.534234-19.1047429 9.603168-24.1736752l38.797652-38.79765366c7.063354-7.06870119 18.628863-7.06870119 25.697564 0 7.068701 7.06335506 7.068701 18.62886236 0 25.69756356" fill="#0c1e32"/></svg>