<svg height="160" viewBox="0 0 160 160" width="160" xmlns="http://www.w3.org/2000/svg"><path d="m0 0h160v160h-160zm68.9318183 33.8213384-.3579548-.8352273h-1.1335225l-.1193184 1.5511364 1.0142048.3579545zm39.9715907 50.8295455-1.014204-1.2528409-.835228 1.2528409.596591 1.3124999zm-2.088068 41.5227271v-4.892045l-.238636-2.923296-.775569-6.5625-.477273-3.579545-.119318-4.414773-.715909-1.3125v-6.5028411l-.715909-3.1619317.715909-1.6107954.357955-3.9971591v-3.2812501l.119318-3.5795453.238636-4.4147726.119318-3.2812501-1.073863-6.6818183v-3.8181817l-.238636-6.622159.119318-3.5198865.119318-2.8039773-.119318-3.0426137-.357955-2.5653408-1.372159-1.8494318-1.610795-1.4914773-2.0284094-1.1931819-1.9687499-.2386364-1.9687502-.4772726-1.3124999.8352274-2.2073864 1.3721589-1.6107953 2.1477273-1.1931819 1.2528409-1.6107954 2.8039773-.4772729 2.3267047-1.2528409 2.4460227-1.0738634 2.5653408-.1193184 2.4460228.7159093 1.9687499.835227.9545454-.835227 1.9687502-.8352274 2.6846588-1.4914773 3.5198866-1.3124999 3.9374998-1.1335229 2.3267047-.5965909 2.0284092-.9545454 1.1335225-.8948864-.715909-1.5511364-1.9687498-.8948864-2.8039776-.3579545-2.9232953-.4772725-3.5795456-.4772729-2.5653408-1.0142044-3.2812502-.596591-2.8039772-1.1931818-4.0568181-.8948864-3.0426137-.715909-2.8039773-1.0738638-2.2073863-1.0142045-1.1931819h-1.5511363l-1.8494318 1.0738639-2.0880683 3.0426137-1.6107954 2.0880679-.3579545 2.2073866-1.0738638.8352271-.4772725 1.7301137-3.4602272 8.4119318v1.7301137l-1.6704548 2.6846589.1193184 1.7301138-1.4914773 2.6846592-.3579545 2.9232953-2.0880683 7.2187502-.2386364 6.085227-1.0738635.4772729-1.3721593 2.5653408-.715909 5.0113635.715909 2.3267048 1.3721593 1.0142044 1.9090909.8352274 2.8636362-.1193184h2.2670454l2.3267047-.3579545 1.3721589-1.9687499 1.1931819-1.9687498-.596591-2.2073867-.119318-2.5653408-1.0738638-1.1931819.1193184-3.4602272 1.1931818-6.4431818.596591-5.3693181v-1.4914773l.775568-3.9971591.9545454-6.9801138 1.1335228-3.2812498.9545455-2.6846592.7159089-1.6107954 1.4914774.715909 1.1931818.7159093 1.0142045 2.2073864.7159093 2.6846588 1.1931815 2.9829547.7755684 3.2812501.4772729 2.6846588 1.3124999 5.846591 1.0142044 2.5653411 1.8494318 2.8039773 1.0738639 1.7301134 1.6107953.7159093 1.0738635-.5965909.9545454-.9545454.8948864-1.8494318 1.0738639-3.2812502 1.0142044-3.3409091 1.0738635-3.2812502 1.1931818-3.9374997 1.3721593-3.5198866 1.6107954-3.0426137 1.7897728-2.4460224 1.6107954-1.6107957 1.3124999.5369319 1.4914773 1.1931819.1193181 2.8039772.3579548 2.4460228.775568 2.3267043-.775568 2.0880683-.4772729 3.7585227.1193181 3.818182.3579548 2.6846589.8948864 1.6704547-.1193184 5.0113636.8352274 2.4460227v2.9829547l.9545454 3.6392043 1.1335229 1.9687502.3579544 3.5198862 1.0738636 4.7727278.894886 3.281249.477273 4.892046 1.431818 4.534091.238637 4.772727v.835227l.775568 1.372159.835227 3.161932.835227 1.610796.775569-.536932zm-51.5454548-19.03125-.775568-.894886h-.9545454l-.1193184 1.610795.9545458.119318z" fill="#29176d" fill-rule="evenodd"/></svg>