<svg enable-background="new 0 0 570 265" viewBox="0 0 570 265" xmlns="http://www.w3.org/2000/svg"><g fill="#9b0101"><path d="m0 38c0-1.333 0-2.667 0-4 2.907-3.297 5.317-7.325 8.839-9.715 5.042-3.422 10.9-5.639 16.403-8.385 9.16-4.572 18.901-6.12 29.037-5.56 5.996.331 11.053 2.413 13.979 8.044 5.72 11.008 12.806 21.533 13.203 34.539.206 6.752 1.352 13.872-.333 20.183-2.004 7.505-6.627 14.303-10.024 21.451-.536 1.128-1.166 2.705-.782 3.7 3.29 8.525 8.631 15.75 14.933 22.689 1.149-4.063 1.67-7.94 1.808-11.83.479-13.455-.266-27.065 1.575-40.322 1.401-10.095 2.388-19.899 1.747-30.081-.258-4.088 2.285-8.415 3.872-12.51.372-.959 2.12-2.112 3.09-1.993 5.539.679 11.004 2.017 16.551 2.551 6.563.632 13.181.753 19.78.936 2.981.082 6.001-.538 8.955-.283 5.179.446 9.576 4.206 10.672 9.132 3.405 15.3-5.298 23.919-19.37 21.743-4.095-.633-8.268-1.404-12.354-1.177-1.929.107-4.787 2.064-5.373 3.806-1.138 3.382-1.106 7.197-1.299 10.847-.163 3.092.557 5.589 4.605 5.504 5.811-.122 11.633-.1 17.44.113 9.756.357 9.753.441 11.177-9.358.857-5.901 2.528-7.278 8.609-6.929 4.655.267 9.321.482 13.954.983 7.694.833 15.464 2.078 20.676 8.498 3.646 4.491 6.738 9.514 9.531 14.599 6.277 11.427 5 18.561-4.354 27.567-.445.429-.691 1.065-1.194 1.866 5.9 4.956 11.687 9.817 17.932 15.064.869-1.61 2.237-3.335 2.771-5.289 1.487-5.44 3.05-10.917 3.823-16.485 1.965-14.153 3.221-28.407 5.312-42.539 2.328-15.732 3.687-16.904 19.263-17.116 10.298-.14 20.638.133 30.9.963 6.615.535 13.77 7.288 13.283 11.708-1.072 9.725-7.687 19.685-20.639 15.914-3.433-1-7.233-1.181-10.828-1.001-1.788.09-4.601 1.553-4.964 2.922-.491 1.853.372 4.649 1.643 6.261 2.477 3.142 6.037 3.383 9.99 2.601 6.421-1.27 13.471-2.187 18.28 3.166 4.943 5.502 3.816 12.465 1.09 18.86-2.599 6.098-6.176 8.037-13.09 7.681-4.645-.239-9.282-.643-13.928-.847-4.688-.206-6.968 1.92-6.569 6.828.294 3.621-.015 7.296.352 10.906.624 6.155 2.215 7.136 8.576 6.195 10.011-1.481 20.021-2.989 30.061-4.243 2.867-.358 2.944-1.715 2.882-4.03-.124-4.634-.249-9.323.294-13.911 1.579-13.34 4.443-26.601 5.016-39.969.661-15.434-1.204-30.966-.789-46.424.287-10.636 2.587-21.217 3.986-31.823h5c1.832 1.405 3.711 2.753 5.486 4.226 5.017 4.165 9.548 8.838 10.218 15.667 1.962 19.989 4.397 39.971 5.261 60.016.858 19.921-.034 39.915-.001 59.876.008 4.714.645 9.427.985 14.035 11.215.064 12.078-.988 10.349-10.853-.342-1.954-.417-3.983-.376-5.972.338-16.268.471-32.547 1.228-48.797.346-7.427 2.351-14.766 2.894-22.197.7-9.58.432-19.229 1.049-28.818.701-10.894.997-10.958 11.565-13.318.486-.108.945-.349 1.433-.432 5.405-.916 9.787 1.714 10.71 7.132 1.14 6.69 1.555 13.499 2.5 20.227 1.796 12.791-1.728 25.795 2.269 38.599 2.307 7.391 2.708 15.365 4.194 23.033.307 1.587 1.5 4.154 2.489 4.254 4.016.407 9.133 1.448 11.853-.51 2.148-1.547 1.507-7.126 1.845-10.938.11-1.243-.772-2.542-.897-3.844-.392-4.105-1.235-8.283-.828-12.325 1.015-10.089 7.182-13.295 16.364-8.972 1.505.708 3.264 1.221 4.365 2.352 1.28 1.315 2.499 3.118 2.805 4.873.856 4.916 1.227 9.916 1.79 14.882 1.623-1.208 2.077-2.405 2.424-3.633 1.714-6.069 3.167-12.222 5.144-18.204 3.862-11.688 11.355-20.62 23.016-24.573 5.707-1.935 12.421-1.62 18.605-1.209 5.056.337 6.79 5.284 8.838 9.299.52 1.019 1.468 1.809 2.112 2.776 3.009 4.523 5.981 9.07 9.213 13.985.861-4.162 2.651-8.761 2.553-13.318-.14-6.482 2.697-10.902 6.922-15.165 7.425-7.49 20.06-6.531 25.119 2.714 2.981 5.448 5.082 11.588 6.429 17.672 2.257 10.194 5.065 20.091 10.291 29.494 1.344-2.38 2.427-4.76 2.765-7.242 1.904-13.97 3.586-27.97 5.434-41.948.746-5.643 1.81-11.177 6.236-15.409 3.38-3.232 6.859-3.864 11.375-2.242 4.937 1.773 7.248 5.386 8.978 9.804v2c-.449 1.361-1.08 2.692-1.317 4.089-1.585 9.324-3.307 18.634-4.528 28.008-.699 5.362-1.849 11.179-.533 16.199 4.892 18.658 4.497 37.504 3.353 56.404-.328 5.409-2.1 10.74-3.309 16.085-2.304 10.185-4.525 20.394-7.158 30.494-.508 1.947-2.418 4.333-4.237 4.998-9.012 3.293-17.068-1.522-19.304-10.951-1.253-5.285-2.528-10.581-4.155-15.758-2.422-7.71-5.306-15.276-7.716-22.99-1.384-4.428-2.044-9.081-3.391-13.524-.563-1.857-2.064-3.43-3.138-5.132-.806.224-1.611.448-2.417.672-.203 8.889-.529 17.776-.579 26.666-.081 14.336-5.091 21.454-18.609 25.997-6.649 2.234-11.398.767-15.574-4.986-1.702-2.345-3.167-4.863-4.549-7.005-19.087 14.432-36.161 10.215-53.304-5.752.676 6.632 1.161 11.687 1.714 16.734.675 6.16.081 11.718-4.764 16.503-5.158 5.094-11.645 4.289-17.784 5.055-6.553.818-12.413-3.281-13.414-9.814-.688-4.491-.306-9.174-.134-13.761.19-5.073.203-10.228 1.153-15.183 1.847-9.629 1.712-10.162-7.866-11.315-2.477-.298-5.001-.275-7.455-.689-4.918-.831-6.613 1.939-7.112 6.096-.178 1.481.225 3.081-.169 4.477-1.56 5.531-2.384 11.565-5.236 16.37-4.756 8.014-13.037 7.855-21.358 6.885-13.516-1.576-27.091-2.643-40.61-4.193-4.489-.515-8.831-1.831-9.895-7.383-.366-1.908-1.245-3.717-1.906-5.617-10.074.155-18.706 5.843-29.304 4.707-9.906-1.062-20.283 2.19-30.443 3.619-5.048.71-9.307-1.939-10.146-6.532-.214-1.173-.282-2.373-.416-3.561-.658-.445-1.315-.89-1.973-1.335-1.515 2.185-2.801 4.581-4.586 6.517-6.514 7.067-15.104 10.448-24.269 11.573-10.971 1.347-22.081 1.556-33.13 2.262-4.742.303-9.097-3.066-9.355-7.698-.377-6.785-.516-13.59-.543-20.387-.015-3.787-1.662-4.772-5.284-4.596-5.403.263-10.843.059-16.253-.222-3.297-.171-6.568-1.241-9.849-1.229-5.291.019-6.287 1.961-3.258 6.324 5.716 8.233 1.099 26.415-14.109 26.865-8.804.261-14.163-5.325-18.091-12.121-5.902-10.213-11.181-20.785-16.767-31.182-.803-1.495-1.841-2.865-2.77-4.293-.49.128-.981.257-1.471.385 0 2.532-.252 5.095.051 7.591.68 5.586 2.009 11.113 2.396 16.711.629 9.103-4.427 21.874-16.669 20.757-9.48-.865-14.562-6.252-14.521-15.69.038-8.955-.035-17.962-.919-26.86-1.892-19.025-4.366-37.992-6.548-56.989-.831-7.239-1.949-14.486-2.124-21.748-.138-5.712-.691-7.063-6.277-7.413-5.115-.32-7.138-2.399-6.877-7.606.114-2.286.831-4.554 1.386-6.802.774-3.149.484-5.885-2.584-7.723zm453.212 45.918c-13.304 9.469-12.757 47.013.144 57.879 4.731-3.988 5.748-9.247 5.352-15.066-.483-7.098-.963-14.197-1.337-21.301-.201-3.818.291-7.733-.39-11.447-.622-3.385-2.405-6.558-3.769-10.065zm-410.745-13.97c5.519-2.544 10.48-4.258 11.935-10.319.501-2.086.976-4.213 1.798-6.181 1.912-4.578.353-11.187-3.308-13.244-3.93-2.209-12.148-.145-14.59 3.803-.45.727-.422 1.921-.254 2.833 1.349 7.325 2.785 14.634 4.419 23.108zm100.649 36.426c-2.494.733-4.266 1.123-5.94 1.77-6.243 2.413-12.34 4.746-19.131 1.342-3.01-1.509-4.682 1.048-5.168 3.675-.406 2.193-.083 4.521-.083 6.232 10.238 4.107 20.843-4.108 30.322 4.19 0-6.2 0-11.288 0-17.209zm30.514 52.509c.581.299 1.161.599 1.742.898 4.286-3.73 8.841-7.207 12.706-11.331 1.304-1.391 1.95-5.545.99-6.482-2.266-2.209-5.577-4.03-8.668-4.427-1.583-.203-4.799 2.747-5.196 4.696-1.107 5.43-1.126 11.082-1.574 16.646zm-1.338-69.528c2.205 3.514 3.218 7.109 5.309 7.919 2.228.863 6.398-.063 6.411-4.145.011-3.607-1.942-6.454-5.988-6.379-1.563.028-3.1 1.355-5.732 2.605z"/><path d="m256.13 209.222c25.142 0 50.284-.044 75.425.047 3.79.014 7.576.662 11.366 1 10.762.961 21.507 2.33 32.29 2.783 23.617.993 47.252 1.577 70.882 2.22 23.792.648 47.595 1.769 71.38 1.51 13.703-.149 27.221.186 40.691 2.559 5.635.993 9.423 4.24 9.885 8.422.536 4.857-2.093 7.65-6.975 7.398-14.446-.746-28.917-1.206-43.32-2.449-3.646-.315-7.914-2.34-10.42-4.98-4.531-4.774-9.688-5.001-15.487-4.901-10.091.174-20.189-.002-30.283-.099-9.792-.094-19.587-.514-29.373-.353-12.304.203-24.65.31-36.887 1.443-16.217 1.501-32.32 4.196-48.52 5.929-15.876 1.699-31.829 2.658-47.717 4.261-23.31 2.351-46.582 5.087-69.89 7.466-18.697 1.908-37.403 3.804-56.141 5.22-41.934 3.168-84.024 4.784-125.222 14.457-6.557 1.54-13.43 1.799-20.178 2.429-3.578.334-4.954-1.666-4.928-5.223.021-2.767-.596-5.544-.989-8.308-.115-.812-.762-1.668-.606-2.381 1.116-5.095.999-11.284 3.97-14.922 3.114-3.812 9.07-6.814 14.072-7.321 28.292-2.865 56.675-4.822 85.017-7.201 11.245-.944 22.447-2.446 33.701-3.22 18.262-1.256 36.549-2.179 54.83-3.132 14.465-.754 28.939-1.341 43.41-2.002.007-.215.012-.434.017-.652z"/><path d="m403.213 69.825c-9.47-.85-15.128-5.059-16.081-15.534-.375-4.12-.185-8.311 0-12.459.225-5.045 3.162-8.011 8.028-8.64 3.399-.439 6.929-.498 10.322-.088 1.755.212 3.995 1.415 4.885 2.865 2.836 4.622 5.677 9.375 7.528 14.438 2.857 7.813-6.3 19.521-14.682 19.418z"/></g></svg>