<svg version="1.1" id="Layer_1" xmlns="http://www.w3.org/2000/svg" xmlns:xlink="http://www.w3.org/1999/xlink" x="0px" y="0px"
	 viewBox="0 0 570 265" enable-background="new 0 0 570 265" xml:space="preserve">
<g>
		<path fill="#9b0101" d="M0,38c0-1.333,0-2.667,0-4c2.907-3.297,5.317-7.325,8.839-9.715c5.042-3.422,10.9-5.639,16.403-8.385
			c9.16-4.572,18.901-6.12,29.037-5.56c5.996,0.331,11.053,2.413,13.979,8.044c5.72,11.008,12.806,21.533,13.203,34.539
			c0.206,6.752,1.352,13.872-0.333,20.183c-2.004,7.505-6.627,14.303-10.024,21.451c-0.536,1.128-1.166,2.705-0.782,3.7
			c3.29,8.525,8.631,15.75,14.933,22.689c1.149-4.063,1.67-7.94,1.808-11.83c0.479-13.455-0.266-27.065,1.575-40.322
			c1.401-10.095,2.388-19.899,1.747-30.081c-0.258-4.088,2.285-8.415,3.872-12.51c0.372-0.959,2.12-2.112,3.09-1.993
			c5.539,0.679,11.004,2.017,16.551,2.551c6.563,0.632,13.181,0.753,19.78,0.936c2.981,0.082,6.001-0.538,8.955-0.283
			c5.179,0.446,9.576,4.206,10.672,9.132c3.405,15.3-5.298,23.919-19.37,21.743c-4.095-0.633-8.268-1.404-12.354-1.177
			c-1.929,0.107-4.787,2.064-5.373,3.806c-1.138,3.382-1.106,7.197-1.299,10.847c-0.163,3.092,0.557,5.589,4.605,5.504
			c5.811-0.122,11.633-0.1,17.44,0.113c9.756,0.357,9.753,0.441,11.177-9.358c0.857-5.901,2.528-7.278,8.609-6.929
			c4.655,0.267,9.321,0.482,13.954,0.983c7.694,0.833,15.464,2.078,20.676,8.498c3.646,4.491,6.738,9.514,9.531,14.599
			c6.277,11.427,5,18.561-4.354,27.567c-0.445,0.429-0.691,1.065-1.194,1.866c5.9,4.956,11.687,9.817,17.932,15.064
			c0.869-1.61,2.237-3.335,2.771-5.289c1.487-5.44,3.05-10.917,3.823-16.485c1.965-14.153,3.221-28.407,5.312-42.539
			c2.328-15.732,3.687-16.904,19.263-17.116c10.298-0.14,20.638,0.133,30.9,0.963c6.615,0.535,13.77,7.288,13.283,11.708
			c-1.072,9.725-7.687,19.685-20.639,15.914c-3.433-1-7.233-1.181-10.828-1.001c-1.788,0.09-4.601,1.553-4.964,2.922
			c-0.491,1.853,0.372,4.649,1.643,6.261c2.477,3.142,6.037,3.383,9.99,2.601c6.421-1.27,13.471-2.187,18.28,3.166
			c4.943,5.502,3.816,12.465,1.09,18.86c-2.599,6.098-6.176,8.037-13.09,7.681c-4.645-0.239-9.282-0.643-13.928-0.847
			c-4.688-0.206-6.968,1.92-6.569,6.828c0.294,3.621-0.015,7.296,0.352,10.906c0.624,6.155,2.215,7.136,8.576,6.195
			c10.011-1.481,20.021-2.989,30.061-4.243c2.867-0.358,2.944-1.715,2.882-4.03c-0.124-4.634-0.249-9.323,0.294-13.911
			c1.579-13.34,4.443-26.601,5.016-39.969c0.661-15.434-1.204-30.966-0.789-46.424C296.301,21.187,298.601,10.606,300,0
			c1.667,0,3.333,0,5,0c1.832,1.405,3.711,2.753,5.486,4.226c5.017,4.165,9.548,8.838,10.218,15.667
			c1.962,19.989,4.397,39.971,5.261,60.016c0.858,19.921-0.034,39.915-0.001,59.876c0.008,4.714,0.645,9.427,0.985,14.035
			c11.215,0.064,12.078-0.988,10.349-10.853c-0.342-1.954-0.417-3.983-0.376-5.972c0.338-16.268,0.471-32.547,1.228-48.797
			c0.346-7.427,2.351-14.766,2.894-22.197c0.7-9.58,0.432-19.229,1.049-28.818c0.701-10.894,0.997-10.958,11.565-13.318
			c0.486-0.108,0.945-0.349,1.433-0.432c5.405-0.916,9.787,1.714,10.71,7.132c1.14,6.69,1.555,13.499,2.5,20.227
			c1.796,12.791-1.728,25.795,2.269,38.599c2.307,7.391,2.708,15.365,4.194,23.033c0.307,1.587,1.5,4.154,2.489,4.254
			c4.016,0.407,9.133,1.448,11.853-0.51c2.148-1.547,1.507-7.126,1.845-10.938c0.11-1.243-0.772-2.542-0.897-3.844
			c-0.392-4.105-1.235-8.283-0.828-12.325c1.015-10.089,7.182-13.295,16.364-8.972c1.505,0.708,3.264,1.221,4.365,2.352
			c1.28,1.315,2.499,3.118,2.805,4.873c0.856,4.916,1.227,9.916,1.79,14.882c1.623-1.208,2.077-2.405,2.424-3.633
			c1.714-6.069,3.167-12.222,5.144-18.204c3.862-11.688,11.355-20.62,23.016-24.573c5.707-1.935,12.421-1.62,18.605-1.209
			c5.056,0.337,6.79,5.284,8.838,9.299c0.52,1.019,1.468,1.809,2.112,2.776c3.009,4.523,5.981,9.07,9.213,13.985
			c0.861-4.162,2.651-8.761,2.553-13.318c-0.14-6.482,2.697-10.902,6.922-15.165c7.425-7.49,20.06-6.531,25.119,2.714
			c2.981,5.448,5.082,11.588,6.429,17.672c2.257,10.194,5.065,20.091,10.291,29.494c1.344-2.38,2.427-4.76,2.765-7.242
			c1.904-13.97,3.586-27.97,5.434-41.948c0.746-5.643,1.81-11.177,6.236-15.409c3.38-3.232,6.859-3.864,11.375-2.242
			c4.937,1.773,7.248,5.386,8.978,9.804c0,0.667,0,1.333,0,2c-0.449,1.361-1.08,2.692-1.317,4.089
			c-1.585,9.324-3.307,18.634-4.528,28.008c-0.699,5.362-1.849,11.179-0.533,16.199c4.892,18.658,4.497,37.504,3.353,56.404
			c-0.328,5.409-2.1,10.74-3.309,16.085c-2.304,10.185-4.525,20.394-7.158,30.494c-0.508,1.947-2.418,4.333-4.237,4.998
			c-9.012,3.293-17.068-1.522-19.304-10.951c-1.253-5.285-2.528-10.581-4.155-15.758c-2.422-7.71-5.306-15.276-7.716-22.99
			c-1.384-4.428-2.044-9.081-3.391-13.524c-0.563-1.857-2.064-3.43-3.138-5.132c-0.806,0.224-1.611,0.448-2.417,0.672
			c-0.203,8.889-0.529,17.776-0.579,26.666c-0.081,14.336-5.091,21.454-18.609,25.997c-6.649,2.234-11.398,0.767-15.574-4.986
			c-1.702-2.345-3.167-4.863-4.549-7.005c-19.087,14.432-36.161,10.215-53.304-5.752c0.676,6.632,1.161,11.687,1.714,16.734
			c0.675,6.16,0.081,11.718-4.764,16.503c-5.158,5.094-11.645,4.289-17.784,5.055c-6.553,0.818-12.413-3.281-13.414-9.814
			c-0.688-4.491-0.306-9.174-0.134-13.761c0.19-5.073,0.203-10.228,1.153-15.183c1.847-9.629,1.712-10.162-7.866-11.315
			c-2.477-0.298-5.001-0.275-7.455-0.689c-4.918-0.831-6.613,1.939-7.112,6.096c-0.178,1.481,0.225,3.081-0.169,4.477
			c-1.56,5.531-2.384,11.565-5.236,16.37c-4.756,8.014-13.037,7.855-21.358,6.885c-13.516-1.576-27.091-2.643-40.61-4.193
			c-4.489-0.515-8.831-1.831-9.895-7.383c-0.366-1.908-1.245-3.717-1.906-5.617c-10.074,0.155-18.706,5.843-29.304,4.707
			c-9.906-1.062-20.283,2.19-30.443,3.619c-5.048,0.71-9.307-1.939-10.146-6.532c-0.214-1.173-0.282-2.373-0.416-3.561
			c-0.658-0.445-1.315-0.89-1.973-1.335c-1.515,2.185-2.801,4.581-4.586,6.517c-6.514,7.067-15.104,10.448-24.269,11.573
			c-10.971,1.347-22.081,1.556-33.13,2.262c-4.742,0.303-9.097-3.066-9.355-7.698c-0.377-6.785-0.516-13.59-0.543-20.387
			c-0.015-3.787-1.662-4.772-5.284-4.596c-5.403,0.263-10.843,0.059-16.253-0.222c-3.297-0.171-6.568-1.241-9.849-1.229
			c-5.291,0.019-6.287,1.961-3.258,6.324c5.716,8.233,1.099,26.415-14.109,26.865c-8.804,0.261-14.163-5.325-18.091-12.121
			c-5.902-10.213-11.181-20.785-16.767-31.182c-0.803-1.495-1.841-2.865-2.77-4.293c-0.49,0.128-0.981,0.257-1.471,0.385
			c0,2.532-0.252,5.095,0.051,7.591c0.68,5.586,2.009,11.113,2.396,16.711c0.629,9.103-4.427,21.874-16.669,20.757
			c-9.48-0.865-14.562-6.252-14.521-15.69c0.038-8.955-0.035-17.962-0.919-26.86c-1.892-19.025-4.366-37.992-6.548-56.989
			c-0.831-7.239-1.949-14.486-2.124-21.748c-0.138-5.712-0.691-7.063-6.277-7.413c-5.115-0.32-7.138-2.399-6.877-7.606
			c0.114-2.286,0.831-4.554,1.386-6.802C3.358,42.574,3.068,39.838,0,38z M453.212,83.918c-13.304,9.469-12.757,47.013,0.144,57.879
			c4.731-3.988,5.748-9.247,5.352-15.066c-0.483-7.098-0.963-14.197-1.337-21.301c-0.201-3.818,0.291-7.733-0.39-11.447
			C456.359,90.598,454.576,87.425,453.212,83.918z M42.467,69.948c5.519-2.544,10.48-4.258,11.935-10.319
			c0.501-2.086,0.976-4.213,1.798-6.181c1.912-4.578,0.353-11.187-3.308-13.244c-3.93-2.209-12.148-0.145-14.59,3.803
			c-0.45,0.727-0.422,1.921-0.254,2.833C39.397,54.165,40.833,61.474,42.467,69.948z M143.116,106.374
			c-2.494,0.733-4.266,1.123-5.94,1.77c-6.243,2.413-12.34,4.746-19.131,1.342c-3.01-1.509-4.682,1.048-5.168,3.675
			c-0.406,2.193-0.083,4.521-0.083,6.232c10.238,4.107,20.843-4.108,30.322,4.19C143.116,117.383,143.116,112.295,143.116,106.374z
			 M173.63,158.883c0.581,0.299,1.161,0.599,1.742,0.898c4.286-3.73,8.841-7.207,12.706-11.331c1.304-1.391,1.95-5.545,0.99-6.482
			c-2.266-2.209-5.577-4.03-8.668-4.427c-1.583-0.203-4.799,2.747-5.196,4.696C174.097,147.667,174.078,153.319,173.63,158.883z
			 M172.292,89.355c2.205,3.514,3.218,7.109,5.309,7.919c2.228,0.863,6.398-0.063,6.411-4.145c0.011-3.607-1.942-6.454-5.988-6.379
			C176.461,86.778,174.924,88.105,172.292,89.355z"/>
		<path fill="#9b0101" d="M256.13,209.222c25.142,0,50.284-0.044,75.425,0.047c3.79,0.014,7.576,0.662,11.366,1
			c10.762,0.961,21.507,2.33,32.29,2.783c23.617,0.993,47.252,1.577,70.882,2.22c23.792,0.648,47.595,1.769,71.38,1.51
			c13.703-0.149,27.221,0.186,40.691,2.559c5.635,0.993,9.423,4.24,9.885,8.422c0.536,4.857-2.093,7.65-6.975,7.398
			c-14.446-0.746-28.917-1.206-43.32-2.449c-3.646-0.315-7.914-2.34-10.42-4.98c-4.531-4.774-9.688-5.001-15.487-4.901
			c-10.091,0.174-20.189-0.002-30.283-0.099c-9.792-0.094-19.587-0.514-29.373-0.353c-12.304,0.203-24.65,0.31-36.887,1.443
			c-16.217,1.501-32.32,4.196-48.52,5.929c-15.876,1.699-31.829,2.658-47.717,4.261c-23.31,2.351-46.582,5.087-69.89,7.466
			c-18.697,1.908-37.403,3.804-56.141,5.22c-41.934,3.168-84.024,4.784-125.222,14.457c-6.557,1.54-13.43,1.799-20.178,2.429
			c-3.578,0.334-4.954-1.666-4.928-5.223c0.021-2.767-0.596-5.544-0.989-8.308c-0.115-0.812-0.762-1.668-0.606-2.381
			c1.116-5.095,0.999-11.284,3.97-14.922c3.114-3.812,9.07-6.814,14.072-7.321c28.292-2.865,56.675-4.822,85.017-7.201
			c11.245-0.944,22.447-2.446,33.701-3.22c18.262-1.256,36.549-2.179,54.83-3.132c14.465-0.754,28.939-1.341,43.41-2.002
			C256.12,209.659,256.125,209.44,256.13,209.222z"/>
		<path fill="#9b0101" d="M403.213,69.825c-9.47-0.85-15.128-5.059-16.081-15.534c-0.375-4.12-0.185-8.311,0-12.459
			c0.225-5.045,3.162-8.011,8.028-8.64c3.399-0.439,6.929-0.498,10.322-0.088c1.755,0.212,3.995,1.415,4.885,2.865
			c2.836,4.622,5.677,9.375,7.528,14.438C420.752,58.22,411.595,69.928,403.213,69.825z"/>
	</g>
</svg>
