<svg height="207" viewBox="0 0 185 207" width="185" xmlns="http://www.w3.org/2000/svg"><path d="m162.149458 17.0077211c3.925271 4.1696946 6.003356 9.0220847 6.003356 14.7987397 0 5.7766549-2.078085 10.6395481-6.003356 14.5676734-3.935767 4.1696946-9.026025 6.2492903-14.798482 6.2492903h-73.026836c-5.310661 0-9.6977287 1.8485296-13.4025969 5.5455888-3.6943728 3.7075622-5.5415593 8.0978199-5.5415593 13.4123424l.4617966 67.5238443c0 5.325026 1.8366911 9.715284 5.5415593 13.412343 3.7048682 3.707562 8.0919359 5.556092 13.4025969 5.556092h34.8971294c5.310661 0 9.697729-1.84853 13.402597-5.556092 3.694373-3.697059 5.541559-8.087317 5.541559-13.170773 0-5.325026-1.847186-9.715284-5.541559-13.422846-3.704868-3.686556-8.091936-5.545589-13.402597-5.545589h-14.0952915c-5.3211563 0-9.7082241-1.848529-13.4130923-5.545588-3.6838774-3.707562-5.5415592-8.09782-5.5415592-13.422846 0-5.3145223 1.8576818-9.7152831 5.5415592-13.4018392 3.7048682-3.7075622 8.091936-5.5560918 13.4130923-5.5560918h17.5692615c17.548271 0 31.181766 4.621324 41.131384 14.1055411 10.400919 9.9463499 15.71158 24.0518909 15.71158 42.7892589 0 18.726865-5.310661 32.842909-15.71158 42.547689-9.949618 9.253151-23.583113 14.105541-41.131384 14.105541h-41.834574c-17.5692617 0-31.1922615-4.621324-41.1313838-14.105541-10.400919-9.94635-15.491177-24.051891-15.7220753-42.789259l-.4617966-71.2209034c-.2308983-18.726865 5.090258-32.8429091 15.4806816-42.7787556 9.9391223-9.4947201 23.5726175-14.105541 41.3727775-14.105541h76.4903106c5.772457 0 10.862715 2.0690928 14.798482 6.0077211" fill="#cb1057"/></svg>