<svg enable-background="new 0 0 1007.556 719.815" viewBox="0 0 1007.556 719.815" xmlns="http://www.w3.org/2000/svg"><path d="m998.516 438.887c-24.664-59.518-94.43-108.226-141.752-135.713-2.264-37.316-5.902-71.536-11.719-90.566-8.479-27.716-21.589-57.942-41.806-86.661-8.872-12.609-19.122-24.92-30.93-36.602-43.938-43.438-109.677-78.222-208.022-87.023-15.836-1.426-32.521-2.17-50.089-2.17-3.818 0-7.484-.152-11.304-.152-3.689 0-7.532.152-11.224.152-126.775 0-207.215 38.82-258.213 89.302-11.809 11.683-22.027 23.995-30.891 36.596-20.202 28.711-33.281 58.921-41.752 86.629-5.86 19.183-9.503 53.825-11.757 91.511-47.274 27.661-115.645 75.903-140.014 134.697-15.915 38.398-13.056 81.285 26.713 125.881 22.804 25.562 57.729 51.689 108.212 77.822 0 0 18.492 9.701 51.522 22.232 60.136 22.819 168.456 54.993 301.022 54.993h14.536c67.51 0 128.741-8.345 180.509-19.559 105.725-22.873 172.043-57.666 172.043-57.666 50.474-26.134 85.408-52.26 108.204-77.822 39.768-44.596 42.621-87.483 26.712-125.881z" fill="#48126d"/></svg>