<svg version="1.1" xmlns="http://www.w3.org/2000/svg" xmlns:xlink="http://www.w3.org/1999/xlink" x="0px" y="0px"
	 viewBox="0 0 1007.556 719.815" enable-background="new 0 0 1007.556 719.815" xml:space="preserve">
<path fill="#48126d" d="M998.516,438.887c-24.664-59.518-94.43-108.226-141.752-135.713c-2.264-37.316-5.902-71.536-11.719-90.566
	c-8.479-27.716-21.589-57.942-41.806-86.661c-8.872-12.609-19.122-24.92-30.93-36.602C728.371,45.907,662.632,11.123,564.287,2.322
	c-15.836-1.426-32.521-2.17-50.089-2.17C510.38,0.152,506.714,0,502.894,0c-3.689,0-7.532,0.152-11.224,0.152
	c-126.775,0-207.215,38.82-258.213,89.302c-11.809,11.683-22.027,23.995-30.891,36.596c-20.202,28.711-33.281,58.921-41.752,86.629
	c-5.86,19.183-9.503,53.825-11.757,91.511C101.783,331.851,33.412,380.093,9.043,438.887
	c-15.915,38.398-13.056,81.285,26.713,125.881c22.804,25.562,57.729,51.689,108.212,77.822c0,0,18.492,9.701,51.522,22.232
	c60.136,22.819,168.456,54.993,301.022,54.993c4.852,0,9.686,0,14.536,0c67.51,0,128.741-8.345,180.509-19.559
	C797.282,677.383,863.6,642.59,863.6,642.59c50.474-26.134,85.408-52.26,108.204-77.822
	C1011.572,520.172,1014.425,477.285,998.516,438.887z"/>
</svg>
