<svg height="40" viewBox="0 0 40 40" width="40" xmlns="http://www.w3.org/2000/svg"><path d="m29.0245895 33.3850564c-.1660348-.9845574-1.028648-5.7215818-3.1479094-11.5379651 5.0777004-.8116376 9.5389269.5170383 10.0933032.6918118-.7222648 4.502669-3.3101046 8.3912474-6.9453938 10.8461533m-9.0536655 2.7675122c-3.7459791 0-7.1988153-1.2763763-9.9463345-3.4160278.2916865-.5954216 3.5725297-6.9250035 12.7122579-10.1056168.0356167-.0123135.0712334-.0239651.1068502-.0360139 2.2749686 5.90377 3.2157003 10.8519791 3.4568083 12.2716167-1.945547.8275262-4.0849338 1.2860418-6.3295819 1.2860418m-16.20415327-16.1823066c0-.1655052.00331011-.330216.00834147-.4945296.70889198.0145645 8.5612544.1155889 16.6534007-2.3030383.4639442.9067038.9069686 1.8270453 1.3138467 2.7463275-.2143624.0602439-.4275331.1243275-.6385854.1925157-8.3570871 2.6977352-12.80427873 10.0511986-13.17130312 10.678662-2.58797213-2.8689338-4.16570035-6.66377-4.16570035-10.8199373m9.31503137-14.64496165c.4271359.58509408 3.3228153 4.59243902 6.0077073 9.35885715-7.5797422 2.0101603-14.25569337 1.9812962-14.98034146 1.9716307 1.05062718-5.0214286 4.43924739-9.19507322 8.97263416-11.33048785m6.8891219-1.53747735c4.1172405 0 7.8800349 1.5422439 10.741554 4.07765156-.2914216.4145575-2.7307038 3.68878054-8.4928013 5.84551224-2.6551011-4.87194429-5.5981812-8.87439028-6.0461046-9.4733868 1.2186481-.29327526 2.4898607-.449777 3.7973519-.449777m12.5430453 5.94905226c2.2566969 2.75360974 3.6233729 6.26099654 3.6589896 10.08045994-.5342509-.1128084-5.8914565-1.197993-11.2832195-.5208781-.1136028-.2771219-.2298537-.5554355-.3490174-.8352055-.3364391-.789129-.6980349-1.5730941-1.0749896-2.3439513 5.9911568-2.4427247 8.7065017-5.9189965 9.0482369-6.38042504m-12.5430453-8.7369547c-10.46059229 0-18.97087104 8.49902439-18.97087104 18.94558184 0 10.4466899 8.51027875 18.9455819 18.97087104 18.9455819 10.46046 0 18.9707387-8.498892 18.9707387-18.9455819 0-10.44655745-8.5102787-18.94558184-18.9707387-18.94558184" fill="#fff" fill-rule="evenodd"/></svg>