<svg xmlns="http://www.w3.org/2000/svg" viewBox="0 0 40 40">
  <title>Github</title>
  <path d="m19.9982504 1c-10.4905614 0-18.9982504 8.50652261-18.9982504 19.0005832 0 8.3945486 5.44356794 15.5153933 12.9936462 18.0278093.9506124.1749594 1.2970318-.4117376 1.2970318-.9156205 0-.4502286-.0163295-1.6457841-.0256607-3.2309156-5.28493811 1.1477332-6.40001224-2.5474078-6.40001224-2.5474078-.86429908-2.1951564-2.11000951-2.7795206-2.11000951-2.7795206-1.72509899-1.1780595.1306363-1.1547316.1306363-1.1547316 1.90705669.1341355 2.91015685 1.9583781 2.91015685 1.9583781 1.6947727 2.9031585 4.4474662 2.0645201 5.5298812 1.5781332.1726265-1.2270481.6636791-2.0645201 1.206053-2.5392431-4.2188526-.4793885-8.65465485-2.1100095-8.65465485-9.3906504 0-2.0738512.74066116-3.7709567 1.95604531-5.0983149-.19595445-.4805549-.84796956-2.4132723.18662324-5.02833109 0 0 1.5944627-.51088125 5.2242856 1.94788049 1.5151478-.4222351 3.1411032-.6321863 4.756561-.6403511 1.6142914.0081648 3.2390804.218116 4.756561.6403511 3.6274901-2.45876174 5.21962-1.94788049 5.21962-1.94788049 1.0369256 2.61505879.3849105 4.54777619.1901224 5.02833109 1.217717 1.3273582 1.9525462 3.0244637 1.9525462 5.0983149 0 7.2993032-4.4428006 8.9054299-8.6744836 9.3754873.681175.5866969 1.2888671 1.7460941 1.2888671 3.5190153 0 2.5392431-.0233279 4.5886-.0233279 5.2114552 0 .5085485.3429202 1.099911 1.3063629.9144541 7.5442463-2.5182479 12.9831487-9.6344271 12.9831487-18.0266429 0-10.49406059-8.507689-19.0005832-19.0017496-19.0005832" />
</svg>