<svg height="40" viewBox="0 0 40 40" width="40" xmlns="http://www.w3.org/2000/svg"><g fill="#fff" fill-rule="evenodd"><path d="m36.5677143 31.5714286c-.2544286 0-.5114286-.0728572-.7388572-.2248572-.61-.4092857-.7728571-1.2358571-.3647142-1.8458571 1.2275714-1.8322857 1.8771428-3.9777143 1.8771428-6.2044286 0-2.227-.6495714-4.3724286-1.8762857-6.2042857-.409-.61-.2465714-1.4361429.3638571-1.8452857.6094286-.4091429 1.4351429-.2457143 1.8445715.3638571 1.5225714 2.2715715 2.3265714 4.929 2.3265714 7.6857143 0 2.756-.804 5.4138572-2.3261429 7.6854286-.2571428.3828571-.6771428.5897143-1.1061428.5897143"/><path d="m32.7641429 29.412c-.2564286 0-.5161429-.0742857-.7444286-.2292857-.608-.4118572-.767-1.239-.3547143-1.8477143.8095714-1.195 1.2375714-2.5915714 1.2375714-4.0387143 0-1.4457143-.4282857-2.8432857-1.238-4.0408571-.4118571-.6078572-.2524285-1.4352857.356-1.8468572.6084286-.4122857 1.4347143-.2515714 1.8458572.3562857 1.1092857 1.639 1.6957143 3.5521429 1.6957143 5.5314286 0 1.9811429-.5864286 3.8938572-1.6961429 5.5315714-.257.3794286-.6754286.5841429-1.1018571.5841429"/><path d="m25.267 26.5704286h-18.17071429c-2.44657142 0-4.437-1.9841429-4.437-4.4238572 0-2.4405714 1.99042858-4.4261428 4.437-4.4261428 1.18714286 0 2.30157143.4602857 3.13714289 1.297.5194285.5195714 1.361.5195714 1.8808571 0 .5191429-.5195715.5191429-1.3611429 0-1.881-.9147143-.9151429-2.0397143-1.5414286-3.26442856-1.851 1.26228576-2.7747143 4.06228576-4.6248572 7.19071426-4.6248572 4.3542857 0 7.8964286 3.5365715 7.8964286 7.8832857 0 .8468572-.1332857 1.6768572-.3955714 2.4687143-.2311429.697.146 1.4497143.8431428 1.6811429.139.0461428.2801429.0681428.419.0681428.5574286 0 1.0767143-.3535714 1.2615715-.9117142.1734285-.5227143.3038571-1.058.3924285-1.6012858 1.2231429.4764286 2.093 1.6614286 2.093 3.0474286 0 1.8051429-1.4728571 3.2741429-3.2835714 3.2741429zm1.2775714-9.066c-.5248571-5.3277143-5.0351428-9.5044286-10.504-9.5044286-4.5311428 0-8.54342854 2.909-9.98699997 7.1451429-3.419.5062857-6.05357143 3.4484285-6.05357143 7.0014285 0 3.9061429 3.18357143 7.084 7.09628571 7.084h18.17071429c3.2768571 0 5.9427143-2.6622857 5.9427143-5.9342857 0-2.8335714-2.0008572-5.2064286-4.6651429-5.7918571z"/></g></svg>