<svg width="40px" height="40px" viewBox="0 0 40 40" version="1.1" xmlns="http://www.w3.org/2000/svg" xmlns:xlink="http://www.w3.org/1999/xlink">
  <g id="soundcloud" stroke="none" stroke-width="1" fill="none" fill-rule="evenodd">
    <g transform="translate(0.000000, 10.000000)" fill="#FFFFFF">
      <path d="M8.26325123,5.84 C8.10226601,5.84 7.96965517,5.97142857 7.9617734,6.13871921 L7.65004926,12.7233498 L7.9617734,16.9785222 C7.96965517,17.1444335 8.10226601,17.2760591 8.26325123,17.2760591 C8.42305419,17.2760591 8.55527094,17.1444335 8.56492611,16.9775369 L8.56492611,16.9785222 L8.91763547,12.7233498 L8.56492611,6.13871921 C8.55527094,5.97142857 8.42305419,5.84 8.26325123,5.84 Z"></path>
      <path d="M19.8305419,1.14837438 C19.5361576,1.14837438 19.2943842,1.39034483 19.2900493,1.6870936 L19.0691626,12.72867 L19.2904433,16.7361576 C19.2943842,17.0285714 19.5361576,17.2703448 19.8305419,17.2703448 C20.1239409,17.2703448 20.3657143,17.0285714 20.3698522,16.7318227 L20.3698522,16.7365517 L20.6100493,12.72867 L20.3698522,1.68630542 C20.3657143,1.39034483 20.1239409,1.14837438 19.8305419,1.14837438 Z"></path>
      <path d="M34.9485714,7.50226601 C34.2770443,7.50226601 33.6362562,7.63842365 33.0528079,7.88275862 C32.6624631,3.46522167 28.9582266,0 24.439803,0 C23.3339901,0 22.2565517,0.217536946 21.3044335,0.586009852 C20.9341872,0.729064039 20.8360591,0.876453202 20.8325123,1.16216749 L20.8325123,16.7188177 C20.8364532,17.0189163 21.0687685,17.2687685 21.3617734,17.2981281 C21.3743842,17.2995074 34.8610837,17.3062069 34.9485714,17.3062069 C37.6555665,17.3062069 39.8500493,15.11133 39.8500493,12.4039409 C39.8500493,9.69674877 37.6555665,7.50226601 34.9485714,7.50226601 Z"></path>
      <path d="M13.5558621,16.8851232 L13.5558621,16.8831527 L13.8384236,12.7255172 L13.5558621,3.66463054 C13.5491626,3.43921182 13.3716256,3.26305419 13.1523153,3.26305419 C12.9322167,3.26305419 12.7546798,3.43921182 12.7483744,3.66463054 L12.4973399,12.7255172 L12.7487685,16.8847291 C12.7546798,17.1071921 12.9322167,17.2833498 13.1523153,17.2833498 C13.3716256,17.2833498 13.5481773,17.1071921 13.5558621,16.8835468 L13.5558621,16.8851232 Z"></path>
      <path d="M9.88039409,17.2837438 C10.0595074,17.2837438 10.2072906,17.137931 10.2159606,16.95133 L10.5450246,12.7241379 L10.2159606,4.63389163 C10.2072906,4.4470936 10.0595074,4.30108374 9.88039409,4.30108374 C9.69950739,4.30108374 9.55231527,4.4470936 9.54423645,4.63389163 C9.54423645,4.63408867 9.25280788,12.7241379 9.25280788,12.7241379 L9.54463054,16.9529064 C9.55231527,17.137931 9.69950739,17.2837438 9.88039409,17.2837438 Z"></path>
      <path d="M16.4762562,3.74955665 C16.2165517,3.74955665 16.009064,3.95586207 16.0039409,4.21931034 L15.7931034,12.7266995 L16.0039409,16.8200985 C16.009064,17.0809852 16.2165517,17.2868966 16.4762562,17.2868966 C16.7349754,17.2868966 16.9416749,17.0809852 16.9473892,16.8173399 L16.9473892,16.8208867 L17.1838424,12.7270936 L16.9473892,4.21871921 C16.9416749,3.95586207 16.7349754,3.74955665 16.4762562,3.74955665 Z"></path>
      <path d="M3.48965517,17.0074877 C3.59330049,17.0074877 3.67704433,16.9255172 3.68926108,16.8124138 L4.11172414,12.7205911 L3.68965517,8.47408867 C3.67704433,8.36078818 3.59330049,8.27881773 3.48965517,8.27881773 C3.38463054,8.27881773 3.30029557,8.36118227 3.28985222,8.47408867 C3.28985222,8.47448276 2.91802956,12.7205911 2.91802956,12.7205911 L3.28985222,16.8112315 C3.30029557,16.9255172 3.38463054,17.0074877 3.48965517,17.0074877 Z"></path>
      <path d="M6.65931034,17.2405911 C6.80137931,17.2405911 6.91605911,17.1270936 6.92669951,16.9775369 L7.30285714,12.7213793 L6.92669951,8.6729064 C6.9164532,8.5235468 6.8017734,8.41064039 6.65931034,8.41064039 C6.51527094,8.41064039 6.40059113,8.52394089 6.39152709,8.67448276 L6.06009852,12.7213793 L6.39152709,16.9771429 C6.40059113,17.1270936 6.51527094,17.2405911 6.65931034,17.2405911 Z"></path>
      <path d="M14.8078818,17.2792118 C15.0463054,17.2792118 15.2390148,17.0874877 15.2453202,16.8435468 L15.2453202,16.8465025 L15.5052217,12.7263054 L15.2453202,3.89635468 C15.2390148,3.6520197 15.0463054,3.46108374 14.8078818,3.46108374 C14.5676847,3.46108374 14.3751724,3.65241379 14.3698522,3.89635468 L14.1387192,12.7263054 L14.3702463,16.8455172 C14.3751724,17.0874877 14.5676847,17.2792118 14.8078818,17.2792118 Z"></path>
      <path d="M18.1568473,17.2953695 C18.430936,17.2953695 18.6575369,17.0689655 18.6624631,16.7915271 L18.6624631,16.7946798 L18.6624631,16.7915271 L18.8758621,12.7278818 L18.6624631,2.6035468 C18.657734,2.32610837 18.430936,2.10009852 18.1568473,2.10009852 C17.8821675,2.10009852 17.6553695,2.32610837 17.6514286,2.60413793 L17.4604926,12.724532 C17.4604926,12.7310345 17.6514286,16.7942857 17.6514286,16.7942857 C17.6553695,17.0689655 17.8821675,17.2953695 18.1568473,17.2953695 Z"></path>
      <path d="M11.5099507,17.2752709 C11.7091626,17.2752709 11.871133,17.1144828 11.8796059,16.9085714 L12.1856158,12.7249261 L11.8796059,3.95921182 C11.8715271,3.75330049 11.7091626,3.59251232 11.5099507,3.59251232 C11.3091626,3.59251232 11.146798,3.75369458 11.1400985,3.95960591 C11.1400985,3.96 10.8687685,12.7249261 10.8687685,12.7249261 L11.1400985,16.9101478 C11.146798,17.1140887 11.3091626,17.2752709 11.5099507,17.2752709 Z"></path>
      <path d="M5.06817734,8.12847291 C4.94482759,8.12847291 4.84394089,8.22719212 4.83428571,8.35862069 L4.48275862,12.7213793 L4.83428571,16.942069 C4.84394089,17.0725123 4.94482759,17.1714286 5.06817734,17.1714286 C5.19054187,17.1714286 5.29083744,17.0725123 5.30167488,16.942069 L5.70108374,12.7213793 L5.30167488,8.35783251 C5.29083744,8.22719212 5.19054187,8.12847291 5.06817734,8.12847291 Z"></path>
      <path d="M2.08985222,9.14128079 C2.07625616,9.04630542 2.00788177,8.98049261 1.92433498,8.98049261 C1.83980296,8.98049261 1.76985222,9.04827586 1.75862069,9.14128079 C1.75862069,9.14206897 1.36689655,12.719803 1.36689655,12.719803 L1.75862069,16.2197044 C1.76985222,16.3131034 1.83980296,16.3812808 1.92433498,16.3812808 C2.00788177,16.3812808 2.07625616,16.3150739 2.08945813,16.2204926 L2.53536946,12.719803 L2.08985222,9.14128079 Z"></path>
      <path d="M0.451034483,10.3507389 C0.367881773,10.3507389 0.302068966,10.4151724 0.291231527,10.506798 L0,12.719803 L0.291231527,14.8953695 C0.302068966,14.9869951 0.367881773,15.0508374 0.451034483,15.0508374 C0.531428571,15.0508374 0.597044335,14.9877833 0.610049261,14.8961576 L0.610049261,14.8957635 C0.610049261,14.8957635 0.610049261,14.8957635 0.610049261,14.8961576 L0.95546798,12.719803 L0.610049261,10.5060099 C0.597635468,10.4147783 0.531428571,10.3507389 0.451034483,10.3507389 Z"></path>
    </g>
  </g>
</svg>