<svg height="40" viewBox="0 0 40 40" width="40" xmlns="http://www.w3.org/2000/svg"><g fill="#fff" fill-rule="evenodd" transform="translate(0 10)"><path d="m8.26325123 5.84c-.16098522 0-.29359606.13142857-.30147783.29871921l-.31172414 6.58463059.31172414 4.2551724c.00788177.1659113.14049261.2975369.30147783.2975369.15980296 0 .29201971-.1316256.30167488-.2985222v.0009853l.35270936-4.2551724-.35270936-6.58463059c-.00965517-.16729064-.14187192-.29871921-.30167488-.29871921z"/><path d="m19.8305419 1.14837438c-.2943843 0-.5361577.24197045-.5404926.53871922l-.2208867 11.0415764.2212807 4.0074876c.0039409.2924138.2457143.5341872.5400986.5341872.293399 0 .5351724-.2417734.5393103-.5385221v.004729l.2401971-4.0078817-.2401971-11.04236458c-.0041379-.29596059-.2459113-.53793104-.5393103-.53793104z"/><path d="m34.9485714 7.50226601c-.6715271 0-1.3123152.13615764-1.8957635.38049261-.3903448-4.41753695-4.0945813-7.88275862-8.6130049-7.88275862-1.1058129 0-2.1832513.21753695-3.1353695.58600985-.3702463.14305419-.4683744.29044335-.4719212.57615764v15.55665021c.0039409.3000986.2362562.5499508.5292611.5793104.0126108.0013793 13.4993103.0080788 13.586798.0080788 2.7069951 0 4.9014779-2.1948769 4.9014779-4.902266 0-2.70719213-2.1944828-4.90167489-4.9014779-4.90167489z"/><path d="m13.5558621 16.8851232v-.0019705l.2825615-4.1576355-.2825615-9.06088666c-.0066995-.22541872-.1842365-.40157635-.4035468-.40157635-.2200986 0-.3976355.17615763-.4039409.40157635l-.2510345 9.06088666.2514286 4.1592119c.0059113.222463.1834482.3986207.4035468.3986207.2193103 0 .395862-.1761577.4035468-.399803z"/><path d="m9.88039409 17.2837438c.17911331 0 .32689651-.1458128.33556651-.3324138l.329064-4.2271921-.329064-8.09024627c-.00867-.18679803-.1564532-.33280789-.33556651-.33280789-.1808867 0-.32807882.14600986-.33615764.33280789 0 .00019704-.29142857 8.09024627-.29142857 8.09024627l.29182266 4.2287685c.00768473.1850246.15487685.3308374.33576355.3308374z"/><path d="m16.4762562 3.74955665c-.2597045 0-.4671922.20630542-.4723153.46975369l-.2108375 8.50738916.2108375 4.093399c.0051231.2608867.2126108.4667981.4723153.4667981.2587192 0 .4654187-.2059114.471133-.4695567v.0035468l.2364532-4.0937931-.2364532-8.50837439c-.0057143-.26285714-.2124138-.46916256-.471133-.46916256z"/><path d="m3.48965517 17.0074877c.10364532 0 .18738916-.0819705.19960591-.1950739l.42246306-4.0918227-.42206897-4.24650243c-.01261084-.11330049-.09635468-.19527094-.2-.19527094-.10502463 0-.1893596.08236454-.19980295.19527094 0 .00039409-.37182266 4.24650243-.37182266 4.24650243l.37182266 4.0906404c.01044335.1142857.09477832.1962562.19980295.1962562z"/><path d="m6.65931034 17.2405911c.14206897 0 .25674877-.1134975.26738917-.2630542l.37615763-4.2561576-.37615763-4.0484729c-.01024631-.1493596-.12492611-.26226601-.26738917-.26226601-.1440394 0-.25871921.1133005-.26778325.26384237l-.33142857 4.04689654.33142857 4.2557636c.00906404.1499507.12374385.2634482.26778325.2634482z"/><path d="m14.8078818 17.2792118c.2384236 0 .431133-.1917241.4374384-.435665v.0029557l.2599015-4.1201971-.2599015-8.82995072c-.0063054-.24433498-.1990148-.43527094-.4374384-.43527094-.2401971 0-.4327094.19133005-.4380296.43527094l-.231133 8.82995072.2315271 4.1192118c.0049261.2419705.1974384.4336946.4376355.4336946z"/><path d="m18.1568473 17.2953695c.2740887 0 .5006896-.226404.5056158-.5038424v.0031527-.0031527l.213399-4.0636453-.213399-10.124335c-.0047291-.27743843-.2315271-.50344828-.5056158-.50344828-.2746798 0-.5014778.22600985-.5054187.50403941l-.190936 10.12039407c0 .0065025.190936 4.0697537.190936 4.0697537.0039409.2746798.2307389.5010838.5054187.5010838z"/><path d="m11.5099507 17.2752709c.1992119 0 .3611823-.1607881.3696552-.3666995l.3060099-4.1836453-.3060099-8.76571428c-.0080788-.20591133-.1704433-.3666995-.3696552-.3666995-.2007881 0-.3631527.16118226-.3698522.36709359 0 .00039409-.27133 8.76532019-.27133 8.76532019l.27133 4.1852217c.0066995.2039409.1690641.3651231.3698522.3651231z"/><path d="m5.06817734 8.12847291c-.12334975 0-.22423645.09871921-.23389163.23014778l-.35152709 4.36275861.35152709 4.2206897c.00965518.1304433.11054188.2293596.23389163.2293596.12236453 0 .2226601-.0989163.23349754-.2293596l.39940886-4.2206897-.39940886-4.36354679c-.01083744-.13064039-.11113301-.2293596-.23349754-.2293596z"/><path d="m2.08985222 9.14128079c-.01359606-.09497537-.08197045-.16078818-.16551724-.16078818-.08453202 0-.15448276.06778325-.16571429.16078818 0 .00078818-.39172414 3.57852221-.39172414 3.57852221l.39172414 3.4999014c.01123153.093399.08118227.1615764.16571429.1615764.08354679 0 .15192118-.0662069.16512315-.1607882l.44591133-3.5006896z"/><path d="m.45103448 10.3507389c-.08315271 0-.14896551.0644335-.15980295.1560591l-.29123153 2.213005.29123153 2.1755665c.01083744.0916256.07665024.1554679.15980295.1554679.08039409 0 .14600986-.0630541.15901478-.1546798v-.0003941.0003941l.34541872-2.1763546-.34541872-2.2137931c-.01241379-.0912316-.07862069-.155271-.15901478-.155271z"/></g></svg>