<svg height="40" viewBox="0 0 40 40" width="40" xmlns="http://www.w3.org/2000/svg"><path d="m12.950696 35.883056c14.340288 0 22.182272-11.880472 22.182272-22.182272 0-.337592-.00684-.673664-.022344-1.007912 1.522128-1.100328 2.84544-2.473344 3.889376-4.036664-1.397032.620464-2.900312 1.038768-4.477312 1.227248 1.60968-.964896 2.84544-2.492192 3.428208-4.312544-1.506624.893-3.17452 1.542496-4.950336 1.892248-1.422568-1.515288-3.448728-2.46316-5.690728-2.46316-4.305856 0-7.797448 3.491592-7.797448 7.795776 0 .611952.068552 1.206728.20216 1.77764-6.479304-.325736-12.224904-3.428208-16.069744-8.145528-.670168 1.151856-1.055792 2.490672-1.055792 3.918408 0 2.704992 1.37636 5.09276 3.469248 6.48964-1.278624-.039368-2.480184-.390792-3.53096-.975384-.001824.032528-.001824.065208-.001824.099408 0 3.776288 2.687816 6.928464 6.2548 7.64332-.654664.178144-1.343832.274208-2.055192.274208-.502208 0-.990736-.049704-1.465584-.1406.99256 3.097456 3.870528 5.351464 7.283232 5.415-2.668816 2.091064-6.030144 3.33716-9.682856 3.33716-.629128 0-1.249592-.035872-1.859872-.10792 3.450552 2.211144 7.547256 3.501928 11.950696 3.501928" fill="#fff" fill-rule="evenodd"/></svg>