<svg version="1.1" id="Layer_1" xmlns="http://www.w3.org/2000/svg" xmlns:xlink="http://www.w3.org/1999/xlink" x="0px" y="0px"
	 viewBox="0 0 247.693 352.096" enable-background="new 0 0 247.693 352.096" xml:space="preserve">
<g>
	<path fill="#028180" d="M247.693,248.477c0,17.401-4.477,33.062-13.428,46.98c-8.953,13.924-21.945,25.317-38.977,34.192
		c-15.125,7.83-31.729,13.531-49.803,17.096c-18.078,3.568-38.764,5.351-62.055,5.351c-17.209,0-34.893-0.306-53.057-0.914
		C12.21,350.575,2.084,350.183,0,350.008c0.522-33.409,0.869-64.945,1.044-94.615c0.171-29.664,0.261-57.983,0.261-84.957
		c0-51.157-0.22-91.654-0.652-121.498C0.216,19.098,0,3.568,0,2.349c2.43-0.171,12.035-0.608,28.804-1.305
		C45.574,0.351,61.871,0,77.685,0c17.9,0,34.408,1.174,49.532,3.523c15.121,2.349,27.895,5.612,38.322,9.788
		c15.814,6.264,28.242,15.269,37.279,27.014s13.555,26.146,13.555,43.196c0,17.924-5.672,33.8-17.018,47.633
		c-11.346,13.833-24.289,23.274-38.838,28.319v2.61c11.971,1.044,23.594,3.875,34.869,8.483
		c11.277,4.612,21.166,11.183,29.67,19.706c7.455,7.483,13.094,15.75,16.912,24.796
		C245.785,224.118,247.693,235.255,247.693,248.477z M203.324,249.782c0-8.874-1.566-16.835-4.699-23.882
		c-3.131-7.047-7.83-13.788-14.094-20.228c-5.918-5.913-14.055-10.701-24.404-14.355c-10.355-3.654-21.623-5.481-33.801-5.481
		c-9.746,0-17.618,0.09-23.622,0.262c-6.002,0.175-9.963,0.261-11.875,0.261l-4.176-31.321c12.875-0.347,24.229-1.868,34.061-4.568
		c9.828-2.695,18.572-6.741,26.23-12.137c7.309-5.22,13.312-11.875,18.01-19.967c4.699-8.091,7.047-17.182,7.047-27.275
		c0-10.612-2.605-19.792-7.812-27.536c-5.213-7.74-12.328-13.874-21.357-18.401c-7.643-3.654-17.023-6.395-28.137-8.222
		c-11.114-1.827-23.01-2.741-35.684-2.741c-8.164,0-15.672,0.131-22.533,0.392c-6.859,0.261-11.242,0.392-13.152,0.392
		c-0.521,25.407-0.826,52.376-0.912,80.912c-0.09,28.539-0.131,49.244-0.131,62.119c0,29.931,0.131,59.99,0.391,90.178
		c0.262,30.19,0.393,46.328,0.393,48.416c3.475,0.176,8.119,0.392,13.939,0.652c5.818,0.262,11.422,0.392,16.811,0.392
		c19.975,0,38.518-1.044,55.631-3.132c17.111-2.088,31.572-6.436,43.387-13.05c9.727-5.392,17.24-12.439,22.541-21.142
		C200.672,271.621,203.324,261.442,203.324,249.782z"/>
</g>
</svg>
