<svg enable-background="new 0 0 247.693 352.096" viewBox="0 0 247.693 352.096" xmlns="http://www.w3.org/2000/svg"><path d="m247.693 248.477c0 17.401-4.477 33.062-13.428 46.98-8.953 13.924-21.945 25.317-38.977 34.192-15.125 7.83-31.729 13.531-49.803 17.096-18.078 3.568-38.764 5.351-62.055 5.351-17.209 0-34.893-.306-53.057-.914-18.163-.607-28.289-.999-30.373-1.174.522-33.409.869-64.945 1.044-94.615.171-29.664.261-57.983.261-84.957 0-51.157-.22-91.654-.652-121.498-.437-29.84-.653-45.37-.653-46.589 2.43-.171 12.035-.608 28.804-1.305 16.77-.693 33.067-1.044 48.881-1.044 17.9 0 34.408 1.174 49.532 3.523 15.121 2.349 27.895 5.612 38.322 9.788 15.814 6.264 28.242 15.269 37.279 27.014s13.555 26.146 13.555 43.196c0 17.924-5.672 33.8-17.018 47.633s-24.289 23.274-38.838 28.319v2.61c11.971 1.044 23.594 3.875 34.869 8.483 11.277 4.612 21.166 11.183 29.67 19.706 7.455 7.483 13.094 15.75 16.912 24.796 3.817 9.05 5.725 20.187 5.725 33.409zm-44.369 1.305c0-8.874-1.566-16.835-4.699-23.882-3.131-7.047-7.83-13.788-14.094-20.228-5.918-5.913-14.055-10.701-24.404-14.355-10.355-3.654-21.623-5.481-33.801-5.481-9.746 0-17.618.09-23.622.262-6.002.175-9.963.261-11.875.261l-4.176-31.321c12.875-.347 24.229-1.868 34.061-4.568 9.828-2.695 18.572-6.741 26.23-12.137 7.309-5.22 13.312-11.875 18.01-19.967 4.699-8.091 7.047-17.182 7.047-27.275 0-10.612-2.605-19.792-7.812-27.536-5.213-7.74-12.328-13.874-21.357-18.401-7.643-3.654-17.023-6.395-28.137-8.222s-23.01-2.741-35.684-2.741c-8.164 0-15.672.131-22.533.392-6.859.261-11.242.392-13.152.392-.521 25.407-.826 52.376-.912 80.912-.09 28.539-.131 49.244-.131 62.119 0 29.931.131 59.99.391 90.178.262 30.19.393 46.328.393 48.416 3.475.176 8.119.392 13.939.652 5.818.262 11.422.392 16.811.392 19.975 0 38.518-1.044 55.631-3.132 17.111-2.088 31.572-6.436 43.387-13.05 9.727-5.392 17.24-12.439 22.541-21.142 5.296-8.699 7.948-18.878 7.948-30.538z" fill="#028180"/></svg>