<svg enable-background="new 0 0 566.034 450.971" viewBox="0 0 566.034 450.971" xmlns="http://www.w3.org/2000/svg"><g fill="#8abb4c"><path d="m30.748 346.614v-292.572c0-7.454-3.727-11.647-13.045-11.647h-17.703v-42.395h99.698v119.731c27.021-15.374 52.178-24.692 78.733-24.692 51.247 0 96.903 34.941 96.903 126.719 0 102.028-60.099 139.298-135.105 139.298-33.077.001-75.006-5.59-109.481-14.442zm126.719-198.464c-16.771 0-38.668 7.92-57.769 22.362v132.776c12.579 3.727 26.555 6.056 38.202 6.056 46.588 0 67.087-26.09 67.087-82.461 0-56.837-17.238-78.733-47.52-78.733z"/><path d="m310.267 143.956h-18.635v-42.395h97.834v22.829c27.487-18.17 55.44-28.885 84.325-28.885 48.452 0 92.243 30.282 92.243 126.719 0 103.891-49.383 138.366-115.071 138.366-18.635 0-39.6-1.863-60.099-6.522v54.508h30.747v42.395h-129.98v-42.395h18.635c6.988 0 11.647-.932 11.647-10.25v-244.586c.001-8.386-4.658-9.784-11.646-9.784zm81.063 24.226v136.503c11.647 3.728 27.952 6.522 39.599 6.522 51.713 0 64.757-28.884 64.757-86.187 0-56.371-18.169-78.268-47.053-78.268-16.771 0-37.27 7.454-57.303 21.43z"/></g></svg>