<svg version="1.1" id="Layer_1" xmlns="http://www.w3.org/2000/svg" xmlns:xlink="http://www.w3.org/1999/xlink" x="0px" y="0px"
	 viewBox="0 0 566.034 450.971" enable-background="new 0 0 566.034 450.971" xml:space="preserve">
<g>
	<path fill="#8abb4c" d="M30.748,346.614V54.042c0-7.454-3.727-11.647-13.045-11.647H0V0h99.698v119.731c27.021-15.374,52.178-24.692,78.733-24.692
		c51.247,0,96.903,34.941,96.903,126.719c0,102.028-60.099,139.298-135.105,139.298C107.152,361.057,65.223,355.466,30.748,346.614z
		 M157.467,148.15c-16.771,0-38.668,7.92-57.769,22.362v132.776c12.579,3.727,26.555,6.056,38.202,6.056
		c46.588,0,67.087-26.09,67.087-82.461C204.987,170.046,187.749,148.15,157.467,148.15z"/>
	<path fill="#8abb4c" d="M310.267,143.956h-18.635v-42.395h97.834v22.829c27.487-18.17,55.44-28.885,84.325-28.885
		c48.452,0,92.243,30.282,92.243,126.719c0,103.891-49.383,138.366-115.071,138.366c-18.635,0-39.6-1.863-60.099-6.522v54.508
		h30.747v42.395h-129.98v-42.395h18.635c6.988,0,11.647-0.932,11.647-10.25V153.74C321.914,145.354,317.255,143.956,310.267,143.956
		z M391.33,168.182v136.503c11.647,3.728,27.952,6.522,39.599,6.522c51.713,0,64.757-28.884,64.757-86.187
		c0-56.371-18.169-78.268-47.053-78.268C431.862,146.752,411.363,154.206,391.33,168.182z"/>
</g>
</svg>
