<svg enable-background="new 0 0 311.905 437.384" viewBox="0 0 311.905 437.384" xmlns="http://www.w3.org/2000/svg"><path d="m151.769 437.384c-82.457 0-151.769-67.52-151.769-164.318v-273.066h27.486c31.071 0 52.582 17.926 52.582 55.569v93.811c16.133-23.304 43.619-48.997 87.238-48.997 81.859 0 144.6 66.923 144.6 161.928-.001 96.797-62.144 175.073-160.137 175.073zm0-265.896c-40.63 0-71.104 40.033-71.104 90.225 0 74.093 31.669 104.566 79.469 104.566 40.034 0 68.715-38.241 68.715-90.226 0-78.275-28.083-104.565-77.08-104.565z" fill="#d1277f"/></svg>