<svg version="1.1" id="Layer_1" xmlns="http://www.w3.org/2000/svg" xmlns:xlink="http://www.w3.org/1999/xlink" x="0px" y="0px"
	 viewBox="0 0 311.905 437.384" enable-background="new 0 0 311.905 437.384" xml:space="preserve">
<g>
	<path fill="#d1277f" d="M151.769,437.384C69.312,437.384,0,369.864,0,273.066V0h27.486c31.071,0,52.582,17.926,52.582,55.569v93.811
		c16.133-23.304,43.619-48.997,87.238-48.997c81.859,0,144.6,66.923,144.6,161.928C311.905,359.108,249.762,437.384,151.769,437.384
		z M151.769,171.488c-40.63,0-71.104,40.033-71.104,90.225c0,74.093,31.669,104.566,79.469,104.566
		c40.034,0,68.715-38.241,68.715-90.226C228.849,197.778,200.766,171.488,151.769,171.488z"/>
</g>
</svg>
