<svg enable-background="new 0 0 148 148" viewBox="0 0 148 148" xmlns="http://www.w3.org/2000/svg"><g clip-rule="evenodd" fill="#063c57" fill-rule="evenodd"><path d="m74 0c5.389 0 9.758 4.369 9.758 9.758v40.66c0 5.389-4.369 9.758-9.758 9.758s-9.758-4.369-9.758-9.758v-40.66c0-5.389 4.369-9.758 9.758-9.758z"/><path d="m74 87.824c5.389 0 9.758 4.369 9.758 9.758v40.66c0 5.389-4.369 9.758-9.758 9.758s-9.758-4.369-9.758-9.758v-40.66c0-5.389 4.369-9.758 9.758-9.758z"/><path d="m97.582 64.242h40.659c5.389 0 9.758 4.369 9.758 9.758s-4.369 9.758-9.758 9.758h-40.659c-5.389 0-9.758-4.369-9.758-9.758s4.369-9.758 9.758-9.758z"/><path d="m9.758 64.242h40.659c5.389 0 9.758 4.369 9.758 9.758s-4.369 9.758-9.758 9.758h-40.659c-5.389 0-9.758-4.369-9.758-9.758s4.369-9.758 9.758-9.758z"/></g></svg>