<svg version="1.1" id="Layer_1" xmlns="http://www.w3.org/2000/svg" xmlns:xlink="http://www.w3.org/1999/xlink" x="0px" y="0px"
	 viewBox="0 0 148 148" enable-background="new 0 0 148 148" xml:space="preserve">
<path fill-rule="evenodd" clip-rule="evenodd" fill="#063c57" d="M74,0c5.389,0,9.758,4.369,9.758,9.758v40.66
	c0,5.389-4.369,9.758-9.758,9.758c-5.389,0-9.758-4.369-9.758-9.758V9.758C64.242,4.369,68.611,0,74,0z"/>
<path fill-rule="evenodd" clip-rule="evenodd" fill="#063c57" d="M74,87.824c5.389,0,9.758,4.369,9.758,9.758v40.66
	c0,5.389-4.369,9.758-9.758,9.758c-5.389,0-9.758-4.369-9.758-9.758v-40.66C64.242,92.193,68.611,87.824,74,87.824z"/>
<path fill-rule="evenodd" clip-rule="evenodd" fill="#063c57" d="M97.582,64.242h40.659c5.389,0,9.758,4.369,9.758,9.758
	c0,5.389-4.369,9.758-9.758,9.758H97.582c-5.389,0-9.758-4.369-9.758-9.758C87.824,68.611,92.193,64.242,97.582,64.242z"/>
<path fill-rule="evenodd" clip-rule="evenodd" fill="#063c57" d="M9.758,64.242h40.659c5.389,0,9.758,4.369,9.758,9.758
	c0,5.389-4.369,9.758-9.758,9.758H9.758C4.369,83.758,0,79.389,0,74C0,68.611,4.369,64.242,9.758,64.242z"/>
</svg>
