<svg version="1.1" id="Layer_1" xmlns="http://www.w3.org/2000/svg" xmlns:xlink="http://www.w3.org/1999/xlink" x="0px" y="0px"
	 viewBox="0 0 323.059 166.372" enable-background="new 0 0 323.059 166.372" xml:space="preserve">
<g>
	<path fill="#709305" d="M153.763,166.372h-21.754l-24.721-69.961L82.32,166.372H62.296L0,0h32.631l42.025,122.862l20.271-54.385L68.476,0h27.935
		l12.36,32.632L119.648,0H146.1l-24.968,65.263l23.485,55.869L183.428,0h29.417L153.763,166.372z"/>
	<path fill="#709305" d="M264.992,102.562c-6.536,0-8.296-0.504-26.646-2.514v65.859h-13.575V0h46.002c31.925,0,52.286,14.831,52.286,47.761
		C323.059,82.199,299.43,102.562,264.992,102.562z M267.757,12.066h-29.41v76.418c14.831,1.76,17.345,2.01,23.126,2.01
		c26.646,0,46.504-11.814,46.504-41.476C307.977,22.624,293.147,12.066,267.757,12.066z"/>
</g>
</svg>
