<svg enable-background="new 0 0 323.059 166.372" viewBox="0 0 323.059 166.372" xmlns="http://www.w3.org/2000/svg"><g fill="#709305"><path d="m153.763 166.372h-21.754l-24.721-69.961-24.968 69.961h-20.024l-62.296-166.372h32.631l42.025 122.862 20.271-54.385-26.451-68.477h27.935l12.36 32.632 10.877-32.632h26.452l-24.968 65.263 23.485 55.869 38.811-121.132h29.417z"/><path d="m264.992 102.562c-6.536 0-8.296-.504-26.646-2.514v65.859h-13.575v-165.907h46.002c31.925 0 52.286 14.831 52.286 47.761 0 34.438-23.629 54.801-58.067 54.801zm2.765-90.496h-29.41v76.418c14.831 1.76 17.345 2.01 23.126 2.01 26.646 0 46.504-11.814 46.504-41.476 0-26.394-14.83-36.952-40.22-36.952z"/></g></svg>