<svg height="350" viewBox="0 0 310 350" width="310" xmlns="http://www.w3.org/2000/svg"><path d="m154.975923 0-27.068719 52.785995c-3.071213 5.7366378-8.574315 5.2043852-14.077683 1.9999767l-19.5985849-10.6096272 14.6072779 81.0777435c3.071301 14.81274-6.782988 14.81274-11.6475638 8.407731l-34.2005496-40.0305305-5.5527848 20.3283295c-.6400138 2.669587-3.4551252 5.473434-7.6793155 4.805771l-43.24795784-9.507041 11.35885464 43.177995c2.4322437 9.607115 4.3283382 13.585282-2.4548269 16.119017l-15.4140702 7.574725 74.4480552 63.224699c2.9464299 2.390797 4.4361172 6.692744 3.3863132 10.587487l-6.5158875 22.35638c25.6340283-3.089014 48.6156501-5.854336 74.2487921-8.94025 2.277971-.029407 6.054661 1.994663 6.038632 4.73758l-3.395789 81.904019h12.463212l-1.962161-81.727783c-.015489-2.744067 3.409427-4.94313 5.687398-4.913727 25.633142 3.085559 48.614764 5.850881 74.248792 8.940249l-6.515887-22.35638c-1.049804-3.895097.439812-8.197044 3.386313-10.587487l74.448055-63.224699-15.41407-7.574724c-6.783077-2.534001-4.887071-6.511903-2.454827-16.119018l11.358855-43.177994-43.247958 9.507041c-4.224102.667689-7.039284-2.136184-7.679316-4.805772l-5.552784-20.3283289-34.20055 40.0305309c-4.864842 6.404655-14.718865 6.404655-11.647564-8.407731l14.607278-81.0777439-19.598585 10.6096272c-5.503456 3.2044085-11.006381 3.7366611-14.077682-1.9999768" fill="#2d75b2"/></svg>