<svg enable-background="new 0 0 292.069 292.069" viewBox="0 0 292.069 292.069" xmlns="http://www.w3.org/2000/svg"><g fill="#41d1c6"><path d="m146.034 292.069c-80.523 0-146.034-65.511-146.034-146.034 0-80.524 65.511-146.035 146.034-146.035 80.524 0 146.035 65.511 146.035 146.035 0 80.523-65.511 146.034-146.035 146.034zm0-262.069c-63.981 0-116.034 52.053-116.034 116.035 0 63.981 52.053 116.034 116.034 116.034 63.982 0 116.035-52.053 116.035-116.034 0-63.982-52.053-116.035-116.035-116.035z"/><path d="m145.793 212.069c-3.839 0-7.678-1.465-10.606-4.394l-51.035-51.034c-2.813-2.813-4.394-6.628-4.394-10.606s1.581-7.793 4.394-10.606l51.035-51.035c5.857-5.858 15.354-5.858 21.213 0 5.857 5.858 5.857 15.355 0 21.213l-40.428 40.428 40.428 40.428c5.857 5.857 5.857 15.355 0 21.213-2.929 2.928-6.768 4.393-10.607 4.393z"/></g></svg>