<?xml version="1.0" encoding="utf-8"?>
<!-- Generator: Adobe Illustrator 18.1.1, SVG Export Plug-In . SVG Version: 6.00 Build 0)  -->
<svg version="1.1" id="Layer_1" xmlns="http://www.w3.org/2000/svg" xmlns:xlink="http://www.w3.org/1999/xlink" x="0px" y="0px"
	 viewBox="0 0 16 15" enable-background="new 0 0 16 15" xml:space="preserve">
<path fill="#FFFFFF" d="M14.5,3h-13C0.675,3,0,2.325,0,1.5v0C0,0.675,0.675,0,1.5,0h13C15.325,0,16,0.675,16,1.5v0
	C16,2.325,15.325,3,14.5,3z"/>
<path fill="#FFFFFF" d="M14.5,15h-13C0.675,15,0,14.325,0,13.5v0C0,12.675,0.675,12,1.5,12h13c0.825,0,1.5,0.675,1.5,1.5v0
	C16,14.325,15.325,15,14.5,15z"/>
<path fill="#FFFFFF" d="M14.5,9h-13C0.675,9,0,8.325,0,7.5v0C0,6.675,0.675,6,1.5,6h13C15.325,6,16,6.675,16,7.5v0
	C16,8.325,15.325,9,14.5,9z"/>
</svg>
