<?xml version="1.0" encoding="utf-8"?>
<!-- Generator: Adobe Illustrator 18.1.1, SVG Export Plug-In . SVG Version: 6.00 Build 0)  -->
<svg version="1.1" id="Layer_1" xmlns="http://www.w3.org/2000/svg" xmlns:xlink="http://www.w3.org/1999/xlink" x="0px" y="0px"
	 viewBox="0 0 16 15" enable-background="new 0 0 16 15" xml:space="preserve">
<path fill="#FFFFFF" d="M10.121,7.5l4.937-4.937c0.583-0.583,0.583-1.538,0-2.121s-1.538-0.583-2.121,0L8,5.379L3.073,0.451
	c-0.583-0.583-1.538-0.583-2.121,0s-0.583,1.538,0,2.121L5.879,7.5l-4.913,4.913c-0.583,0.583-0.583,1.538,0,2.121
	c0.583,0.583,1.538,0.583,2.121,0L8,9.621l4.899,4.899c0.583,0.583,1.538,0.583,2.121,0c0.583-0.583,0.583-1.538,0-2.121L10.121,7.5
	z"/>
</svg>
