<svg version="1.1" id="Layer_1" xmlns="http://www.w3.org/2000/svg" xmlns:xlink="http://www.w3.org/1999/xlink" x="0px" y="0px"
	 viewBox="200 200 100 100" enable-background="new 200 200 100 100" xml:space="preserve">
<path fill="#FFFFFF" d="M250,200c27.57,0,50,22.43,50,50c0,27.57-22.43,50-50,50c-27.57,0-50-22.43-50-50
	C200,222.43,222.43,200,250,200z M250,289.728c21.906,0,39.728-17.822,39.728-39.729c0-21.906-17.822-39.728-39.728-39.728
	c-21.906,0-39.729,17.822-39.729,39.728C210.272,271.906,228.094,289.728,250,289.728z"/>
<path fill="#FFFFFF" d="M250.083,227.391c1.314,0,2.629,0.502,3.631,1.504l17.474,17.473c0.963,0.963,1.504,2.269,1.504,3.631
	c0,1.362-0.541,2.668-1.504,3.631l-17.474,17.474c-2.005,2.006-5.257,2.006-7.263,0c-2.005-2.006-2.005-5.257,0-7.263L260.293,250
	l-13.842-13.842c-2.005-2.005-2.005-5.257,0-7.263C247.454,227.892,248.768,227.391,250.083,227.391z"/>
</svg>