<svg enable-background="new 200 200 100 100" viewBox="200 200 100 100" xmlns="http://www.w3.org/2000/svg"><g fill="#fff"><path d="m250 200c27.57 0 50 22.43 50 50s-22.43 50-50 50-50-22.43-50-50 22.43-50 50-50zm0 89.728c21.906 0 39.728-17.822 39.728-39.729 0-21.906-17.822-39.728-39.728-39.728s-39.729 17.822-39.729 39.728c.001 21.907 17.823 39.729 39.729 39.729z"/><path d="m250.083 227.391c1.314 0 2.629.502 3.631 1.504l17.474 17.473c.963.963 1.504 2.269 1.504 3.631s-.541 2.668-1.504 3.631l-17.474 17.474c-2.005 2.006-5.257 2.006-7.263 0-2.005-2.006-2.005-5.257 0-7.263l13.842-13.841-13.842-13.842c-2.005-2.005-2.005-5.257 0-7.263 1.003-1.003 2.317-1.504 3.632-1.504z"/></g></svg>