<svg version="1.1" id="Layer_1" xmlns="http://www.w3.org/2000/svg" xmlns:xlink="http://www.w3.org/1999/xlink" x="0px" y="0px"
	 viewBox="200 200 100 100" enable-background="new 200 200 100 100" xml:space="preserve">
<path fill="#FFFFFF" d="M250,300c-27.57,0-50-22.43-50-50c0-27.57,22.43-50,50-50c27.57,0,50,22.43,50,50
	C300,277.57,277.57,300,250,300z M250,210.272c-21.906,0-39.728,17.822-39.728,39.729c0,21.906,17.822,39.728,39.728,39.728
	c21.906,0,39.729-17.822,39.729-39.728C289.728,228.094,271.906,210.272,250,210.272z"/>
<path fill="#FFFFFF" d="M249.917,272.609c-1.314,0-2.629-0.502-3.631-1.504l-17.474-17.473c-0.963-0.963-1.504-2.269-1.504-3.631
	c0-1.362,0.541-2.668,1.504-3.631l17.474-17.474c2.005-2.006,5.257-2.006,7.263,0c2.005,2.006,2.005,5.257,0,7.263L239.707,250
	l13.842,13.842c2.005,2.005,2.005,5.257,0,7.263C252.546,272.108,251.232,272.609,249.917,272.609z"/>
</svg>
