<svg enable-background="new 39.982 0 486.966 566.931" viewBox="39.982 0 486.966 566.931" xmlns="http://www.w3.org/2000/svg"><g fill="#151515"><path d="m521.907 79.867c-.666-.447-1.39-.825-2.147-1.131l-162.018-64.45c-3.091-1.231-6.569-1.048-9.518.497-2.945 1.55-5.06 4.303-5.808 7.54-.884 3.902-89.76 390.278-135.524 463.873-3.027 4.864-1.969 11.223 2.475 14.847l77.693 63.324c2.603 2.138 6.068 3 9.391 2.352 3.323-.652 6.186-2.749 7.809-5.717 7.604-13.908 186.644-342.103 222.261-468.582 1.357-4.826-.607-9.863-4.614-12.553z"/><path d="m273.493 42.327c.287-4.185-1.732-8.046-5.028-10.257-1.286-.866-2.763-1.477-4.381-1.76l-171.728-30.137c-3.278-.579-6.642.31-9.204 2.421-2.571 2.111-4.089 5.247-4.153 8.575-.087 3.989-8.493 400.367-38.32 481.729-1.974 5.388.374 11.397 5.448 14.041l88.966 46.197c3 1.564 6.546 1.705 9.669.387 3.118-1.308 5.498-3.943 6.482-7.184 4.609-15.167 113.127-372.929 122.249-504.012z"/></g></svg>