<svg version="1.1" xmlns="http://www.w3.org/2000/svg" xmlns:xlink="http://www.w3.org/1999/xlink" x="0px" y="0px"
	 viewBox="39.982 0 486.966 566.931" enable-background="new 39.982 0 486.966 566.931" xml:space="preserve">
<g>
	<path fill="#151515" d="M521.907,79.867c-0.666-0.447-1.39-0.825-2.147-1.131l-162.018-64.45c-3.091-1.231-6.569-1.048-9.518,0.497
		c-2.945,1.55-5.06,4.303-5.808,7.54c-0.884,3.902-89.76,390.278-135.524,463.873c-3.027,4.864-1.969,11.223,2.475,14.847
		l77.693,63.324c2.603,2.138,6.068,3,9.391,2.352c3.323-0.652,6.186-2.749,7.809-5.717
		c7.604-13.908,186.644-342.103,222.261-468.582C527.878,87.594,525.914,82.557,521.907,79.867z"/>
	<path fill="#151515" d="M273.493,42.327c0.287-4.185-1.732-8.046-5.028-10.257c-1.286-0.866-2.763-1.477-4.381-1.76L92.356,0.173
		c-3.278-0.579-6.642,0.31-9.204,2.421c-2.571,2.111-4.089,5.247-4.153,8.575c-0.087,3.989-8.493,400.367-38.32,481.729
		c-1.974,5.388,0.374,11.397,5.448,14.041l88.966,46.197c3,1.564,6.546,1.705,9.669,0.387c3.118-1.308,5.498-3.943,6.482-7.184
		C155.853,531.172,264.371,173.41,273.493,42.327z"/>
</g>
</svg>
