<svg version="1.1" id="Layer_1" xmlns="http://www.w3.org/2000/svg" xmlns:xlink="http://www.w3.org/1999/xlink" x="0px" y="0px"
	 viewBox="0 0 412.438 448.395" enable-background="new 0 0 412.438 448.395" xml:space="preserve">
<g>
	<path fill="#002d55" d="M351.059,130.463c17.941,0,32.539-14.602,32.539-32.537c0-17.94-14.598-32.527-32.539-32.527
		c-17.938,0-32.529,14.586-32.529,32.527C318.529,115.861,333.121,130.463,351.059,130.463z M351.059,80.502
		c9.611,0,17.43,7.816,17.43,17.424c0,9.613-7.818,17.426-17.43,17.426c-9.6,0-17.426-7.812-17.426-17.426
		C333.633,88.318,341.459,80.502,351.059,80.502z"/>
	<polygon fill="#002d55" points="176.352,87.877 208.234,68.445 208.281,68.445 240.174,87.877 229.074,56.891 254.969,34.685 
		221.213,34.685 208.264,0 195.312,34.685 161.551,34.685 187.449,56.891 	"/>
	<path fill="#002d55" d="M62.58,129.848c17.934,0,32.529-14.586,32.529-32.523c0-17.936-14.596-32.531-32.529-32.531
		S30.049,79.389,30.049,97.324C30.049,115.262,44.647,129.848,62.58,129.848z M62.58,79.895c9.613,0,17.424,7.822,17.424,17.43
		c0,9.611-7.81,17.426-17.424,17.426c-9.609,0-17.426-7.815-17.426-17.426C45.154,87.717,52.971,79.895,62.58,79.895z"/>
	<path fill="#002d55" d="M409.377,281.967c0,0-31.977-22.941-37.519-26.764c-5.551-3.81-5.551,2.779-5.551,2.779
		s-4.863,34.689-8.326,54.117c-2.781,7.285,1.211,2.6,1.211,2.6s10.99-15.646,14.801-18.758c3.822-3.127,3.129-0.695,3.129-0.695
		c0.693,7.287,8.611,32.469-1.103,58.834c-9.27,25.164-52.857-10.501-56.798-13.793l-40.662-40.664l0.003-0.002l-57.754-57.752
		l6.842-6.842l74.664-74.67l21.479-1.031l33.26,31.799l14.387-15.035l-34.287-32.782l-0.654-9.302c0,0-5.213,2.416-14.568-6.935
		l-1.74-1.533c-9.367-9.371-6.934-14.572-6.934-14.572l-10.718-0.753l-33.772-32.29l-14.389,15.037l33.492,32.021l-1.023,21.414
		l-80.755,80.759l-81.082-81.079l-1.031-21.473l31.805-33.268l-15.033-14.375l-32.779,34.281l-9.31,0.654
		c0,0,2.426,5.205-6.938,14.572l-1.533,1.732c-9.363,9.367-14.565,6.936-14.565,6.936l-0.758,10.726l-32.291,33.771l15.045,14.383
		l32.019-33.493l21.405,1.026l38.194,38.188l42.135,42.137l-5.031,5.032l-0.004-0.004l-92.833,92.838l0.007-0.034
		c0,0-47.381,40.393-57.09,14.031c-9.711-26.367-1.793-51.547-1.104-58.816c0,0-0.689-2.436,3.125,0.689
		c3.816,3.117,14.803,18.76,14.803,18.76s3.992,4.676,1.211-2.613c-3.469-19.426-8.326-54.109-8.326-54.109s0-6.59-5.545-2.777
		c-5.549,3.818-37.527,26.754-37.527,26.754S0.686,283.055,0,285.055c0,2.416,1.477,2.268,4.637,1.947l14.439,0.25
		c3.277-0.682,2.775,5.549,2.086,9.705c-0.701,4.172-19.779,73.769,6.24,109.498c0,0,3.473,7.01,14.189,13.938
		c35.725,26.012,105.332,6.933,109.496,6.242c4.162-0.699,10.385-1.201,9.713,2.086l0.244,14.439
		c-0.311,3.152-0.471,4.617,1.955,4.617c2-0.674,3.43-3.049,3.43-3.049s22.938-31.973,26.754-37.535
		c3.816-5.533-2.775-5.533-2.775-5.533s-34.693-4.867-54.119-8.328c-7.277-2.781-2.6,1.207-2.6,1.207s15.639,10.988,18.756,14.812
		c3.125,3.805,0.695,3.111,0.695,3.111c-7.281,0.693-32.455,8.621-58.822-1.1c-25.265-9.299,10.773-53.19,13.819-56.831l64.97-64.97
		l0.004,0.004l32.978-32.979l37.04,37.041l-0.006,0.006l61.259,61.254l-0.031-0.006c0,0,40.394,47.373,14.033,57.102
		c-26.373,9.695-51.541,1.775-58.82,1.092c0,0-2.438,0.684,0.688-3.133c3.125-3.805,18.756-14.807,18.756-14.807
		s4.684-3.986-2.6-1.209c-19.42,3.477-54.113,8.328-54.113,8.328s-6.592,0-2.773,5.551c3.811,5.545,26.756,37.521,26.756,37.521
		s1.414,2.387,3.42,3.066c2.434,0,2.275-1.488,1.949-4.65l0.25-14.428c-0.668-3.277,5.551-2.777,9.723-2.086
		c4.16,0.693,73.766,19.773,109.492-6.242c0,0,6.994-3.479,13.924-14.201c26.018-35.719,6.934-105.322,6.248-109.484
		c-0.699-4.17-1.193-10.383,2.082-9.717l14.436-0.25c3.158,0.316,4.637,0.471,4.637-1.949
		C411.756,283.387,409.377,281.967,409.377,281.967z"/>
	<path fill="#002d55" d="M181.238,172.947h10.641l5.234-16.31h21.633l5.231,16.31h10.641l-20.496-60.184h-12.299L181.238,172.947z
		 M208.016,122.445l8.287,26.43h-16.75l8.289-26.43H208.016z"/>
	<path fill="#002d55" d="M104.559,210.707c7.848,0,8.897,5.494,8.897,10.205h11.338c0-9.332-6.279-17.443-20.234-17.443
		c-17.185,0-23.725,13.082-23.725,30.789c0,18.752,7.76,31.314,25.295,31.314c7.238,0,13.518-2.269,16.395-3.49v-8.984
		c-1.656,0.961-7.324,4.449-14.041,4.449c-12.299,0-16.397-10.467-16.397-24.859C92.086,223.268,94.006,210.707,104.559,210.707z"/>
	<path fill="#002d55" d="M304.299,258.33c-7.586,0-13.428-3.662-17.006-5.844v10.557c1.834,0.434,8.896,2.529,16.656,2.529
		c13.086,0,22.156-5.846,22.156-17.098c0-18.143-28.695-19.711-28.695-30.354c0-5.146,4.016-7.414,9.07-7.414
		c6.109,0,11.078,2.268,15.092,3.838v-9.42c-2.182-0.438-8.023-1.656-14.742-1.656c-11.34,0-20.672,4.797-20.672,15.523
		c0,17.098,28.695,17.883,28.695,30.965C314.854,253.883,312.328,258.33,304.299,258.33z"/>
</g>
</svg>
