<svg enable-background="new 0 0 412.438 448.395" viewBox="0 0 412.438 448.395" xmlns="http://www.w3.org/2000/svg"><g fill="#002d55"><path d="m351.059 130.463c17.941 0 32.539-14.602 32.539-32.537 0-17.94-14.598-32.527-32.539-32.527-17.938 0-32.529 14.586-32.529 32.527-.001 17.935 14.591 32.537 32.529 32.537zm0-49.961c9.611 0 17.43 7.816 17.43 17.424 0 9.613-7.818 17.426-17.43 17.426-9.6 0-17.426-7.812-17.426-17.426 0-9.608 7.826-17.424 17.426-17.424z"/><path d="m176.352 87.877 31.882-19.432h.047l31.893 19.432-11.1-30.986 25.895-22.206h-33.756l-12.949-34.685-12.952 34.685h-33.761l25.898 22.206z"/><path d="m62.58 129.848c17.934 0 32.529-14.586 32.529-32.523 0-17.936-14.596-32.531-32.529-32.531s-32.531 14.595-32.531 32.53c0 17.938 14.598 32.524 32.531 32.524zm0-49.953c9.613 0 17.424 7.822 17.424 17.43 0 9.611-7.81 17.426-17.424 17.426-9.609 0-17.426-7.815-17.426-17.426 0-9.608 7.817-17.43 17.426-17.43z"/><path d="m409.377 281.967s-31.977-22.941-37.519-26.764c-5.551-3.81-5.551 2.779-5.551 2.779s-4.863 34.689-8.326 54.117c-2.781 7.285 1.211 2.6 1.211 2.6s10.99-15.646 14.801-18.758c3.822-3.127 3.129-.695 3.129-.695.693 7.287 8.611 32.469-1.103 58.834-9.27 25.164-52.857-10.501-56.798-13.793l-40.662-40.664.003-.002-57.754-57.752 6.842-6.842 74.664-74.67 21.479-1.031 33.26 31.799 14.387-15.035-34.287-32.782-.654-9.302s-5.213 2.416-14.568-6.935l-1.74-1.533c-9.367-9.371-6.934-14.572-6.934-14.572l-10.718-.753-33.772-32.29-14.389 15.037 33.492 32.021-1.023 21.414-80.755 80.759-81.082-81.079-1.031-21.473 31.805-33.268-15.033-14.375-32.779 34.281-9.31.654s2.426 5.205-6.938 14.572l-1.533 1.732c-9.363 9.367-14.565 6.936-14.565 6.936l-.758 10.726-32.291 33.771 15.045 14.383 32.019-33.493 21.405 1.026 38.194 38.188 42.135 42.137-5.031 5.032-.004-.004-92.833 92.838.007-.034s-47.381 40.393-57.09 14.031c-9.711-26.367-1.793-51.547-1.104-58.816 0 0-.689-2.436 3.125.689 3.816 3.117 14.803 18.76 14.803 18.76s3.992 4.676 1.211-2.613c-3.469-19.426-8.326-54.109-8.326-54.109s0-6.59-5.545-2.777c-5.549 3.818-37.527 26.754-37.527 26.754s-2.375 1.432-3.061 3.432c0 2.416 1.477 2.268 4.637 1.947l14.439.25c3.277-.682 2.775 5.549 2.086 9.705-.701 4.172-19.779 73.769 6.24 109.498 0 0 3.473 7.01 14.189 13.938 35.725 26.012 105.332 6.933 109.496 6.242 4.162-.699 10.385-1.201 9.713 2.086l.244 14.439c-.311 3.152-.471 4.617 1.955 4.617 2-.674 3.43-3.049 3.43-3.049s22.938-31.973 26.754-37.535c3.816-5.533-2.775-5.533-2.775-5.533s-34.693-4.867-54.119-8.328c-7.277-2.781-2.6 1.207-2.6 1.207s15.639 10.988 18.756 14.812c3.125 3.805.695 3.111.695 3.111-7.281.693-32.455 8.621-58.822-1.1-25.265-9.299 10.773-53.19 13.819-56.831l64.97-64.97.004.004 32.978-32.979 37.04 37.041-.006.006 61.259 61.254-.031-.006s40.394 47.373 14.033 57.102c-26.373 9.695-51.541 1.775-58.82 1.092 0 0-2.438.684.688-3.133 3.125-3.805 18.756-14.807 18.756-14.807s4.684-3.986-2.6-1.209c-19.42 3.477-54.113 8.328-54.113 8.328s-6.592 0-2.773 5.551c3.811 5.545 26.756 37.521 26.756 37.521s1.414 2.387 3.42 3.066c2.434 0 2.275-1.488 1.949-4.65l.25-14.428c-.668-3.277 5.551-2.777 9.723-2.086 4.16.693 73.766 19.773 109.492-6.242 0 0 6.994-3.479 13.924-14.201 26.018-35.719 6.934-105.322 6.248-109.484-.699-4.17-1.193-10.383 2.082-9.717l14.436-.25c3.158.316 4.637.471 4.637-1.949-.683-1.998-3.062-3.418-3.062-3.418z"/><path d="m181.238 172.947h10.641l5.234-16.31h21.633l5.231 16.31h10.641l-20.496-60.184h-12.299zm26.778-50.502 8.287 26.43h-16.75l8.289-26.43z"/><path d="m104.559 210.707c7.848 0 8.897 5.494 8.897 10.205h11.338c0-9.332-6.279-17.443-20.234-17.443-17.185 0-23.725 13.082-23.725 30.789 0 18.752 7.76 31.314 25.295 31.314 7.238 0 13.518-2.269 16.395-3.49v-8.984c-1.656.961-7.324 4.449-14.041 4.449-12.299 0-16.397-10.467-16.397-24.859-.001-9.42 1.919-21.981 12.472-21.981z"/><path d="m304.299 258.33c-7.586 0-13.428-3.662-17.006-5.844v10.557c1.834.434 8.896 2.529 16.656 2.529 13.086 0 22.156-5.846 22.156-17.098 0-18.143-28.695-19.711-28.695-30.354 0-5.146 4.016-7.414 9.07-7.414 6.109 0 11.078 2.268 15.092 3.838v-9.42c-2.182-.438-8.023-1.656-14.742-1.656-11.34 0-20.672 4.797-20.672 15.523 0 17.098 28.695 17.883 28.695 30.965.001 3.927-2.525 8.374-10.554 8.374z"/></g></svg>