<svg enable-background="new -400 278.28 39.998 40" viewBox="-400 278.28 39.998 40" xmlns="http://www.w3.org/2000/svg"><g fill="#009fc9"><path d="m-367.378 282.771c-3.388-2.761-7.698-4.441-12.41-4.49-4.923-.051-9.445 1.683-12.961 4.595 4.058 1.125 8.657 2.896 12.575 5.614 3.722-2.827 8.249-4.651 12.796-5.719z"/><path d="m-363.113 287.573c-4.41.685-9.061 2.128-12.783 4.636 3.429 3.797 5.01 8.269 4.699 13.299-.341 5.514-4.583 8.38-8.596 8.36-.015-.001-.031-.001-.048-.001-4.009-.042-8.2-2.935-8.484-8.405-.253-4.875 1.155-9.343 4.089-13.043-3.967-2.501-8.782-4.043-12.619-4.903-1.952 3.049-3.102 6.664-3.144 10.552-.117 11.045 8.742 20.092 19.787 20.21 11.044.116 20.092-8.743 20.208-19.788.043-4.015-1.105-7.763-3.109-10.917z"/><path d="m-382.814 305.176c.155 3.008 2.558 3.176 3.049 3.175 1.385.007 2.916-.827 3.062-3.184.218-3.531-.852-6.558-3.271-9.243-2.069 2.639-3.022 5.743-2.84 9.252z"/></g></svg>