<svg version="1.1" id="Layer_1" xmlns="http://www.w3.org/2000/svg" xmlns:xlink="http://www.w3.org/1999/xlink" x="0px" y="0px"
	 viewBox="-400 278.28 39.998 40" enable-background="new -400 278.28 39.998 40" xml:space="preserve">
<g>
	<path fill="#009fc9" d="M-367.378,282.771c-3.388-2.761-7.698-4.441-12.41-4.49c-4.923-0.051-9.445,1.683-12.961,4.595
		c4.058,1.125,8.657,2.896,12.575,5.614C-376.452,285.663-371.925,283.839-367.378,282.771z"/>
	<path fill="#009fc9" d="M-363.113,287.573c-4.41,0.685-9.061,2.128-12.783,4.636c3.429,3.797,5.01,8.269,4.699,13.299
		c-0.341,5.514-4.583,8.38-8.596,8.36c-0.015-0.001-0.031-0.001-0.048-0.001c-4.009-0.042-8.2-2.935-8.484-8.405
		c-0.253-4.875,1.155-9.343,4.089-13.043c-3.967-2.501-8.782-4.043-12.619-4.903c-1.952,3.049-3.102,6.664-3.144,10.552
		c-0.117,11.045,8.742,20.092,19.787,20.21c11.044,0.116,20.092-8.743,20.208-19.788
		C-359.961,294.475-361.109,290.727-363.113,287.573z"/>
	<path fill="#009fc9" d="M-382.814,305.176c0.155,3.008,2.558,3.176,3.049,3.175c1.385,0.007,2.916-0.827,3.062-3.184
		c0.218-3.531-0.852-6.558-3.271-9.243C-382.043,298.563-382.996,301.667-382.814,305.176z"/>
</g>
</svg>
